<?xml version="1.0" encoding="utf-8"?>
<!-- Generator: Adobe Illustrator 20.0.0, SVG Export Plug-In . SVG Version: 6.00 Build 0)  -->
<svg version="1.1" xmlns="http://www.w3.org/2000/svg" xmlns:xlink="http://www.w3.org/1999/xlink" x="0px" y="0px"
	 viewBox="0 0 188.4 50" style="enable-background:new 0 0 188.4 50;" xml:space="preserve">
<style type="text/css">
	.st0{fill:#777777;}
	.st1{fill:#4682B4;}
	.st2{fill:#006BA8;}
	.st3{fill:#FFFFFF;}
	.st4{fill:#80E4FF;}
</style>
<g id="Capa_1">
</g>
<g id="fondo_claro">
	<g>
		<path class="st0" d="M47,26.5c0-0.9,0.1-1.8,0.4-2.4c0.3-0.7,0.7-1.3,1.1-1.8s1-0.8,1.6-1.1c0.6-0.2,1.2-0.4,1.9-0.4
			c1.5,0,2.7,0.5,3.5,1.4c0.9,0.9,1.3,2.3,1.3,4c0,0.2,0,0.4,0,0.6c0,0.2,0,0.4,0,0.6H50c0.1,0.6,0.4,1.1,0.9,1.5
			c0.5,0.4,1.2,0.5,2,0.5c0.5,0,1.1,0,1.6-0.2c0.5-0.1,1-0.2,1.3-0.4l0.4,2.4c-0.2,0.1-0.4,0.2-0.6,0.2s-0.6,0.1-0.9,0.2
			c-0.3,0.1-0.7,0.1-1,0.1S52.9,32,52.5,32c-0.9,0-1.8-0.1-2.5-0.4c-0.7-0.3-1.3-0.7-1.7-1.2c-0.5-0.5-0.8-1.1-1-1.7
			C47.1,28,47,27.3,47,26.5z M54,25.4c0-0.3-0.1-0.5-0.1-0.7c-0.1-0.2-0.2-0.5-0.3-0.6c-0.2-0.2-0.3-0.3-0.6-0.5
			c-0.2-0.1-0.5-0.2-0.9-0.2c-0.3,0-0.6,0.1-0.9,0.2s-0.4,0.3-0.6,0.4c-0.2,0.2-0.3,0.4-0.4,0.7c-0.1,0.2-0.2,0.5-0.2,0.8H54z"/>
		<path class="st0" d="M62.2,29.6c0.5,0,0.9-0.1,1.2-0.2c0.2-0.1,0.3-0.3,0.3-0.6c0-0.2-0.1-0.5-0.4-0.6c-0.3-0.2-0.7-0.4-1.3-0.6
			c-0.5-0.2-0.9-0.4-1.3-0.5c-0.4-0.2-0.7-0.4-1-0.7c-0.3-0.3-0.5-0.6-0.6-0.9c-0.1-0.4-0.2-0.8-0.2-1.3c0-1,0.4-1.8,1.1-2.3
			s1.7-0.9,3-0.9c0.6,0,1.3,0.1,1.8,0.2c0.6,0.1,1.1,0.2,1.4,0.4l-0.5,2.3c-0.3-0.1-0.7-0.2-1.1-0.3c-0.4-0.1-0.9-0.1-1.4-0.1
			c-0.9,0-1.4,0.3-1.4,0.8c0,0.1,0,0.2,0.1,0.3s0.1,0.2,0.2,0.3c0.1,0.1,0.3,0.2,0.5,0.3c0.2,0.1,0.5,0.2,0.8,0.3
			c0.7,0.2,1.2,0.5,1.6,0.7s0.8,0.5,1,0.8c0.2,0.3,0.4,0.6,0.5,0.9c0.1,0.3,0.1,0.7,0.1,1.2c0,1-0.4,1.8-1.2,2.4S63.6,32,62.2,32
			c-0.9,0-1.7-0.1-2.3-0.2s-1.1-0.3-1.3-0.4l0.5-2.4c0.5,0.2,1,0.4,1.6,0.5S61.7,29.6,62.2,29.6z"/>
		<path class="st0" d="M68.4,26.4c0-0.8,0.1-1.5,0.4-2.2c0.2-0.7,0.6-1.3,1.1-1.8s1-0.9,1.7-1.2s1.4-0.4,2.3-0.4
			c0.6,0,1.1,0,1.5,0.1c0.5,0.1,0.9,0.2,1.4,0.4l-0.6,2.4c-0.3-0.1-0.6-0.2-0.9-0.3s-0.7-0.1-1.1-0.1c-0.9,0-1.5,0.3-2,0.8
			s-0.6,1.3-0.6,2.2c0,0.9,0.2,1.7,0.6,2.2c0.4,0.5,1.1,0.8,2.1,0.8c0.4,0,0.7,0,1.2-0.1s0.8-0.2,1.1-0.3l0.4,2.4
			c-0.3,0.1-0.8,0.3-1.3,0.4C75,31.9,74.5,32,73.8,32c-1,0-1.8-0.1-2.5-0.4c-0.7-0.3-1.3-0.7-1.7-1.2c-0.4-0.5-0.8-1.1-1-1.7
			S68.4,27.2,68.4,26.4z"/>
		<path class="st0" d="M87.8,31.3c-0.5,0.1-1.2,0.3-2,0.4c-0.8,0.1-1.6,0.2-2.5,0.2c-0.9,0-1.6-0.1-2.2-0.4c-0.6-0.2-1.1-0.6-1.4-1
			s-0.6-1-0.7-1.6c-0.1-0.6-0.2-1.3-0.2-2v-5.9h3v5.5c0,1,0.1,1.7,0.4,2.1c0.3,0.4,0.7,0.6,1.4,0.6c0.2,0,0.4,0,0.7,0s0.5,0,0.6-0.1
			v-8.1h3V31.3z"/>
		<path class="st0" d="M90.1,26.5c0-0.9,0.1-1.8,0.4-2.4c0.3-0.7,0.7-1.3,1.1-1.8s1-0.8,1.6-1.1c0.6-0.2,1.2-0.4,1.9-0.4
			c1.5,0,2.7,0.5,3.5,1.4c0.9,0.9,1.3,2.3,1.3,4c0,0.2,0,0.4,0,0.6c0,0.2,0,0.4,0,0.6h-6.8c0.1,0.6,0.4,1.1,0.9,1.5
			c0.5,0.4,1.2,0.5,2,0.5c0.5,0,1.1,0,1.6-0.2c0.5-0.1,1-0.2,1.3-0.4l0.4,2.4c-0.2,0.1-0.4,0.2-0.6,0.2s-0.6,0.1-0.9,0.2
			c-0.3,0.1-0.7,0.1-1,0.1S96.1,32,95.7,32c-0.9,0-1.8-0.1-2.5-0.4c-0.7-0.3-1.3-0.7-1.7-1.2c-0.5-0.5-0.8-1.1-1-1.7
			C90.2,28,90.1,27.3,90.1,26.5z M97.1,25.4c0-0.3-0.1-0.5-0.1-0.7c-0.1-0.2-0.2-0.5-0.3-0.6c-0.2-0.2-0.3-0.3-0.6-0.5
			c-0.2-0.1-0.5-0.2-0.9-0.2c-0.3,0-0.6,0.1-0.9,0.2s-0.4,0.3-0.6,0.4c-0.2,0.2-0.3,0.4-0.4,0.7c-0.1,0.2-0.2,0.5-0.2,0.8H97.1z"/>
		<path class="st0" d="M106.5,31.9c-0.9,0-1.6-0.1-2.1-0.3s-1-0.4-1.3-0.7s-0.5-0.7-0.6-1.1c-0.1-0.4-0.2-0.9-0.2-1.5V16.7l3-0.5
			v11.5c0,0.3,0,0.5,0.1,0.7s0.1,0.4,0.2,0.5c0.1,0.1,0.3,0.3,0.5,0.4c0.2,0.1,0.5,0.2,0.9,0.2L106.5,31.9z"/>
		<path class="st0" d="M112.7,20.9c0.9,0,1.6,0.1,2.2,0.3s1.1,0.5,1.4,0.9c0.4,0.4,0.6,0.8,0.8,1.4s0.2,1.1,0.2,1.8v6.2
			c-0.4,0.1-1,0.2-1.8,0.3c-0.8,0.1-1.7,0.2-2.8,0.2c-0.7,0-1.3-0.1-1.8-0.2c-0.6-0.1-1-0.3-1.4-0.6c-0.4-0.3-0.7-0.6-0.9-1.1
			c-0.2-0.4-0.3-1-0.3-1.6c0-0.6,0.1-1.1,0.4-1.6c0.2-0.4,0.6-0.8,1-1s0.9-0.4,1.4-0.6c0.5-0.1,1.1-0.2,1.7-0.2c0.4,0,0.7,0,1,0
			c0.3,0,0.5,0.1,0.7,0.1v-0.3c0-0.5-0.2-0.9-0.5-1.2c-0.3-0.3-0.8-0.5-1.6-0.5c-0.5,0-1,0-1.5,0.1s-0.9,0.2-1.3,0.3l-0.4-2.4
			c0.2-0.1,0.4-0.1,0.7-0.2c0.3-0.1,0.5-0.1,0.8-0.2s0.6-0.1,1-0.1C112,20.9,112.4,20.9,112.7,20.9z M113,29.6c0.3,0,0.6,0,0.8,0
			c0.3,0,0.5,0,0.6-0.1v-2.3c-0.1,0-0.3-0.1-0.5-0.1c-0.2,0-0.5,0-0.7,0c-0.3,0-0.5,0-0.8,0c-0.2,0-0.5,0.1-0.7,0.2
			s-0.3,0.2-0.4,0.4c-0.1,0.2-0.2,0.4-0.2,0.6c0,0.5,0.2,0.8,0.5,1C112,29.5,112.4,29.6,113,29.6z"/>
		<path class="st0" d="M122.9,30.1c0,0.6-0.2,1.1-0.6,1.4s-0.8,0.5-1.3,0.5c-0.5,0-0.9-0.2-1.3-0.5s-0.6-0.8-0.6-1.4
			c0-0.6,0.2-1.1,0.6-1.4c0.4-0.3,0.8-0.5,1.3-0.5c0.5,0,0.9,0.2,1.3,0.5C122.7,29.1,122.9,29.5,122.9,30.1z"/>
	</g>
	<g>
		<path class="st1" d="M133.4,31.2c-0.3,0.1-0.6,0.2-0.9,0.2c-0.3,0.1-0.7,0.1-1.1,0.2c-0.4,0.1-0.8,0.1-1.2,0.1s-0.8,0-1.1,0
			c-0.9,0-1.6-0.1-2.3-0.4c-0.7-0.3-1.3-0.6-1.7-1.1s-0.8-1-1.1-1.7c-0.2-0.7-0.4-1.4-0.4-2.3c0-0.9,0.1-1.6,0.3-2.3
			c0.2-0.7,0.5-1.3,0.9-1.8c0.4-0.5,0.9-0.8,1.5-1.1s1.2-0.4,2-0.4c0.4,0,0.8,0,1.1,0.1c0.3,0.1,0.7,0.2,1,0.3v-4.8l3-0.5V31.2z
			 M126.6,26.2c0,0.9,0.2,1.7,0.6,2.2c0.4,0.6,1,0.8,1.8,0.8c0.3,0,0.5,0,0.7,0c0.2,0,0.4,0,0.6-0.1v-5.4c-0.2-0.1-0.4-0.2-0.7-0.3
			s-0.6-0.1-0.9-0.1C127.3,23.4,126.6,24.3,126.6,26.2z"/>
		<path class="st1" d="M139.4,18c0,0.5-0.2,1-0.5,1.3c-0.4,0.3-0.8,0.5-1.3,0.5c-0.5,0-0.9-0.2-1.3-0.5c-0.4-0.3-0.5-0.7-0.5-1.3
			c0-0.5,0.2-1,0.5-1.3c0.4-0.3,0.8-0.5,1.3-0.5c0.5,0,0.9,0.2,1.3,0.5C139.3,17,139.4,17.5,139.4,18z M139.2,31.6h-3V21.1h3V31.6z"
			/>
		<path class="st1" d="M151,30.3c0,1.7-0.4,3-1.3,3.8s-2.2,1.3-4,1.3c-0.6,0-1.3-0.1-1.9-0.2c-0.6-0.1-1.2-0.3-1.8-0.5l0.5-2.5
			c0.5,0.2,1,0.3,1.5,0.4c0.5,0.1,1.1,0.2,1.8,0.2c0.9,0,1.5-0.2,1.8-0.6s0.5-0.9,0.5-1.4v-0.4c-0.3,0.1-0.7,0.3-1,0.3
			s-0.7,0.1-1.1,0.1c-1.5,0-2.6-0.4-3.3-1.3c-0.8-0.9-1.2-2.1-1.2-3.6c0-0.8,0.1-1.5,0.4-2.1s0.6-1.2,1-1.6s1-0.8,1.7-1.1
			c0.7-0.2,1.4-0.4,2.3-0.4c0.4,0,0.7,0,1.1,0s0.8,0.1,1.1,0.1c0.4,0.1,0.7,0.1,1.1,0.2c0.3,0.1,0.6,0.1,0.9,0.2V30.3z M144.5,26
			c0,1.7,0.7,2.5,2,2.5c0.3,0,0.6,0,0.9-0.1c0.3-0.1,0.5-0.2,0.7-0.3v-4.8c-0.1,0-0.3-0.1-0.5-0.1c-0.2,0-0.4,0-0.7,0
			c-0.8,0-1.4,0.3-1.8,0.8S144.5,25.2,144.5,26z"/>
		<path class="st1" d="M157.1,18c0,0.5-0.2,1-0.5,1.3c-0.4,0.3-0.8,0.5-1.3,0.5c-0.5,0-0.9-0.2-1.3-0.5c-0.4-0.3-0.5-0.7-0.5-1.3
			c0-0.5,0.2-1,0.5-1.3c0.4-0.3,0.8-0.5,1.3-0.5c0.5,0,0.9,0.2,1.3,0.5C156.9,17,157.1,17.5,157.1,18z M156.8,31.6h-3V21.1h3V31.6z"
			/>
		<path class="st1" d="M159.5,18.4l3-0.5v3.1h3.6v2.5h-3.6v3.7c0,0.6,0.1,1.1,0.3,1.5c0.2,0.4,0.7,0.6,1.3,0.6c0.3,0,0.6,0,1-0.1
			s0.7-0.1,0.9-0.3l0.4,2.3c-0.4,0.1-0.8,0.3-1.2,0.4c-0.4,0.1-1,0.2-1.6,0.2c-0.8,0-1.5-0.1-2-0.3c-0.5-0.2-1-0.5-1.3-0.9
			s-0.5-0.9-0.7-1.4c-0.1-0.6-0.2-1.2-0.2-1.9V18.4z"/>
		<path class="st1" d="M171.9,20.8c0.9,0,1.6,0.1,2.2,0.3s1.1,0.5,1.4,0.9c0.4,0.4,0.6,0.8,0.8,1.4s0.2,1.1,0.2,1.8v6.2
			c-0.4,0.1-1,0.2-1.8,0.3c-0.8,0.1-1.7,0.2-2.8,0.2c-0.7,0-1.3-0.1-1.8-0.2c-0.6-0.1-1-0.3-1.4-0.6c-0.4-0.3-0.7-0.6-0.9-1.1
			c-0.2-0.4-0.3-1-0.3-1.6c0-0.6,0.1-1.1,0.4-1.6c0.2-0.4,0.6-0.8,1-1s0.9-0.4,1.4-0.6c0.5-0.1,1.1-0.2,1.7-0.2c0.4,0,0.7,0,1,0
			c0.3,0,0.5,0.1,0.7,0.1v-0.3c0-0.5-0.2-0.9-0.5-1.2c-0.3-0.3-0.8-0.5-1.6-0.5c-0.5,0-1,0-1.5,0.1s-0.9,0.2-1.3,0.3l-0.4-2.4
			c0.2-0.1,0.4-0.1,0.7-0.2c0.3-0.1,0.5-0.1,0.8-0.2s0.6-0.1,1-0.1C171.2,20.8,171.5,20.8,171.9,20.8z M172.1,29.5
			c0.3,0,0.6,0,0.8,0c0.3,0,0.5,0,0.6-0.1v-2.3c-0.1,0-0.3-0.1-0.5-0.1c-0.2,0-0.5,0-0.7,0c-0.3,0-0.5,0-0.8,0
			c-0.2,0-0.5,0.1-0.7,0.2s-0.3,0.2-0.4,0.4c-0.1,0.2-0.2,0.4-0.2,0.6c0,0.5,0.2,0.8,0.5,1C171.1,29.4,171.6,29.5,172.1,29.5z"/>
		<path class="st1" d="M183.4,31.8c-0.9,0-1.6-0.1-2.1-0.3s-1-0.4-1.3-0.7s-0.5-0.7-0.6-1.1c-0.1-0.4-0.2-0.9-0.2-1.5V16.5l3-0.5
			v11.5c0,0.3,0,0.5,0.1,0.7s0.1,0.4,0.2,0.5c0.1,0.1,0.3,0.3,0.5,0.4c0.2,0.1,0.5,0.2,0.9,0.2L183.4,31.8z"/>
	</g>
	<path class="st0" d="M43,25c0,22.8-15.3,24-32,24v-8c0-0.6,0.5-1,1.2-1C26.3,39.9,34,38.3,34,25c0-13.3-7.7-14.9-21.9-15
		C11.5,10,11,9.5,11,8.8V1C27.8,1,43,2.1,43,25z"/>
	<path class="st2" d="M27.9,25C27.9,25,27.9,25,27.9,25c0,2.8-2,5-4.5,5H10v19H1.1c-0.6,0-1.1-0.5-1.1-1V2c0-0.5,0.5-1,1.1-1L10,1
		v19.1h13.4C25.9,20.1,27.9,22.3,27.9,25z"/>
</g>
<g id="fondo_claro_copia">
</g>
</svg>
