<svg xmlns="http://www.w3.org/2000/svg" width="665" height="277" viewBox="0 0 665 277"><style>:root { fill: transparent; } text,tspan { font-family: sans-serif; text-anchor: middle; font-size: 18px; fill: currentColor; } .container { fill: #888; } .item &amp;gt; rect { fill: #ddd; } .item &amp;gt; text { font-size: 40px; font-weight: bold; fill: #f8f8f8; } .arrow { color: hsl(0,80%,40%); stroke: currentColor; stroke-width: 3; } .arrow &amp;gt; path + path { stroke: transparent; fill: currentColor; } .bracket { color: hsl(120,80%,30%); } .bracket &amp;gt; path { stroke: currentColor; stroke-width: 2; } .side { color: hsl(240,80%,50%); } .side &amp;gt; path { stroke-width: 3; stroke: currentColor; } .display, .item &amp;gt; .display { font-size: 16px; font-weight: normal; font-style: italic; fill: #444; }</style><g transform="translate(40 40)"><g class="side"><path d="M493 1.5h30" stroke-dasharray="6"/><text x="25" y="4" transform="translate(503 1.5)">cross start</text></g><g class="side"><path d="M493 118.5h30" stroke-dasharray="6"/><text x="25" y="4" transform="translate(503 118.5)">cross end</text></g><g class="side"><path d="M1.5 110v40" stroke-dasharray="5 5"/><text y="40" transform="translate(1.5 120)"><tspan>main</tspan><tspan x="0" y="58">start</tspan></text></g><g class="side"><path d="M498.5 110v40" stroke-dasharray="5 5"/><text y="40" transform="translate(498.5 120)"><tspan>main</tspan><tspan x="0" y="58">end</tspan></text></g><rect class="container" width="500" height="120" rx="10" ry="10"/><text x="157.5" y="136" class="display">flex container</text><g class="item" transform="translate(5 5)"><rect width="150" height="110" rx="5" ry="5"/><text x="75" y="70">1</text><text x="146" y="106" class="display" text-anchor="end">flex item</text></g><g class="item" transform="translate(160 5)"><rect width="335" height="110" rx="5" ry="5"/><text x="168" y="70">2</text><text x="3" y="106" class="display">flex item</text></g><g class="arrow" transform="translate(-1 60)"><circle cx="3.5" r="5"/><path d="M8 0h600m0 0v-5l10 5-10 5V0"/><text x="550" y="-4" stroke="transparent">main axis</text></g><g class="arrow" transform="rotate(-90 236.25 -13.75)"><circle cx="220" r="5"/><path d="M215 0H-5m0 0v-5l-10 5 10 5V0"/><text x="50" y="-4" stroke="transparent">cross axis</text></g><g class="bracket"><path d="M1-5v-10h498v10"/><text x="249" y="-4" transform="translate(1 -15)">main size</text></g><g class="bracket"><path d="M-5 119h-10V1h10"/><text x="59" y="-4" transform="rotate(-90 52 67)">cross size</text></g></g></svg>