<svg xmlns="http://www.w3.org/2000/svg" width="283.464" height="283.465" viewBox="0 0 283.464 283.465"><path d="M262.126 71.447a127.564 127.564 0 0 0-22.243-1.947c-39.714 0-75.158 18.268-98.401 46.854C118.238 87.768 82.795 69.5 43.08 69.5c-7.601 0-15.044.671-22.277 1.953 14.226 44.099 51.947 77.642 98.417 85.867a126.667 126.667 0 0 0-6.105 38.947c0 30.297 10.634 58.107 28.366 79.914 17.732-21.807 28.366-49.617 28.366-79.914 0-13.591-2.147-26.679-6.107-38.953 46.459-8.236 84.165-41.776 98.386-85.867z"/><path d="M98.511 115.904c.047 8.015-6.404 14.557-14.42 14.605-8.021.048-14.549-6.406-14.602-14.42-.051-8.015 6.402-14.551 14.424-14.6 8.008-.051 14.544 6.401 14.598 14.415zm114 0c.047 8.015-6.404 14.557-14.42 14.605-8.021.048-14.549-6.406-14.602-14.42-.051-8.015 6.402-14.551 14.424-14.6 8.008-.051 14.544 6.401 14.598 14.415zm-56.535 99.5c.047 8.015-6.404 14.557-14.42 14.605-8.021.048-14.549-6.406-14.602-14.42-.051-8.015 6.402-14.551 14.424-14.6 8.008-.051 14.544 6.401 14.598 14.415zM56.966 50.072c0 1.963-.406 3.67-1.216 5.12-.811 1.451-1.92 2.656-3.328 3.616s-3.051 1.686-4.928 2.176c-1.878.491-3.862.736-5.952.736H19.398V16.28h25.28c1.578 0 3.008.342 4.288 1.024a10.71 10.71 0 0 1 3.264 2.656 12.187 12.187 0 0 1 2.08 3.712c.49 1.387.736 2.806.736 4.256 0 2.176-.544 4.224-1.632 6.144-1.088 1.92-2.72 3.371-4.896 4.352 2.602.768 4.661 2.134 6.176 4.096 1.514 1.963 2.272 4.48 2.272 7.552zM29.895 25.24v9.408h10.304c1.152 0 2.176-.384 3.072-1.152s1.344-1.962 1.344-3.584c0-1.493-.395-2.645-1.184-3.456-.79-.81-1.739-1.216-2.848-1.216H29.895zm16.383 22.72c0-1.408-.406-2.602-1.216-3.584-.811-.981-1.835-1.472-3.072-1.472H29.895v9.92h11.648c1.365 0 2.496-.448 3.392-1.344s1.343-2.069 1.343-3.52zm34.048 14.4c-2.816 0-5.344-.459-7.584-1.376s-4.139-2.165-5.696-3.744a16.014 16.014 0 0 1-3.552-5.472 17.64 17.64 0 0 1-1.216-6.496c0-2.432.405-4.725 1.216-6.88a16.685 16.685 0 0 1 3.52-5.664c1.536-1.621 3.424-2.901 5.664-3.84 2.24-.938 4.789-1.408 7.648-1.408 2.858 0 5.397.47 7.616 1.408 2.218.939 4.096 2.208 5.632 3.808s2.698 3.446 3.488 5.536a18.515 18.515 0 0 1 1.184 6.592c0 .598-.022 1.184-.064 1.76a12.581 12.581 0 0 1-.192 1.504H73.158c.17 2.262.992 3.979 2.464 5.152 1.472 1.174 3.146 1.76 5.024 1.76 1.493 0 2.933-.362 4.32-1.088 1.386-.725 2.314-1.706 2.784-2.944l8.704 2.432c-1.323 2.646-3.371 4.8-6.144 6.464-2.774 1.664-6.102 2.496-9.984 2.496zm7.104-20.608c-.214-2.133-.982-3.818-2.304-5.056-1.323-1.237-2.966-1.856-4.928-1.856-2.006 0-3.659.63-4.96 1.888-1.302 1.259-2.059 2.934-2.272 5.024H87.43zm23.231-13.632l6.08 9.472.64 1.216.576-1.216 6.08-9.472h10.496l-11.648 16.832 11.84 16.768h-10.432l-6.336-9.408-.576-1.216-.576 1.216-6.336 9.408H99.973l11.84-16.768-11.584-16.832h10.432zm51.071 31.808c-1.408.598-3.008 1.152-4.8 1.664a19.939 19.939 0 0 1-5.504.768c-1.28 0-2.486-.16-3.616-.48a8.062 8.062 0 0 1-2.976-1.536c-.854-.704-1.526-1.632-2.016-2.784-.491-1.152-.736-2.538-.736-4.16V35.864h-4.288V28.12h4.288V17.432h10.24V28.12h6.848v7.744h-6.848V49.88c0 1.11.288 1.91.864 2.4.576.491 1.29.736 2.144.736.725 0 1.493-.128 2.304-.384.81-.256 1.536-.533 2.176-.832l1.92 8.128zM167.492 15h10.24v34.176c0 2.56 1.109 3.84 3.328 3.84.469 0 1.013-.085 1.632-.256a9.306 9.306 0 0 0 1.696-.64l1.344 8.256c-1.28.598-2.752 1.067-4.416 1.408s-3.2.512-4.608.512c-2.944 0-5.216-.768-6.816-2.304s-2.4-3.754-2.4-6.656V15zm33.279 47.36c-1.664 0-3.211-.267-4.64-.8-1.43-.533-2.656-1.28-3.68-2.24s-1.835-2.09-2.432-3.392c-.598-1.301-.896-2.72-.896-4.256 0-1.664.352-3.178 1.056-4.544.704-1.365 1.696-2.538 2.976-3.52 1.28-.981 2.794-1.749 4.544-2.304 1.749-.554 3.69-.832 5.824-.832 1.408 0 2.773.118 4.096.352 1.322.235 2.474.587 3.456 1.056v-1.536c0-3.882-2.24-5.824-6.72-5.824-1.835 0-3.584.31-5.248.928-1.664.619-3.414 1.547-5.248 2.784l-3.008-6.4c2.218-1.45 4.522-2.538 6.912-3.264 2.389-.725 4.928-1.088 7.616-1.088 5.077 0 9.002 1.195 11.776 3.584 2.773 2.39 4.16 5.888 4.16 10.496v8.64c0 1.024.192 1.739.576 2.144.384.406 1.066.651 2.048.736v8.64c-.982.213-1.888.352-2.72.416s-1.568.096-2.208.096c-1.878-.043-3.307-.427-4.288-1.152-.982-.725-1.6-1.77-1.856-3.136l-.192-1.536c-1.494 1.92-3.275 3.392-5.344 4.416a14.602 14.602 0 0 1-6.56 1.536zm3.008-7.36a9.306 9.306 0 0 0 3.232-.576c1.045-.384 1.909-.896 2.592-1.536.981-.768 1.472-1.578 1.472-2.432v-3.2a16.621 16.621 0 0 0-2.912-.8 16.192 16.192 0 0 0-2.912-.288c-1.878 0-3.424.427-4.64 1.28-1.216.854-1.824 1.963-1.824 3.328 0 1.238.469 2.251 1.408 3.04.938.79 2.133 1.184 3.584 1.184zm4.544-29.888l-6.528-1.792 3.328-8.32h9.28l-6.08 10.112zm54.975 36.608h-10.24V42.84c0-2.218-.416-3.829-1.248-4.832-.832-1.002-1.931-1.504-3.296-1.504-.726 0-1.462.15-2.208.448a8.225 8.225 0 0 0-2.112 1.248 10.955 10.955 0 0 0-1.824 1.888 8.485 8.485 0 0 0-1.28 2.368V61.72h-10.24v-33.6h9.216v5.632c1.237-2.005 2.986-3.552 5.248-4.64 2.261-1.088 4.864-1.632 7.808-1.632 2.176 0 3.936.395 5.28 1.184 1.344.79 2.378 1.814 3.104 3.072a11.905 11.905 0 0 1 1.44 4.128c.234 1.494.352 2.944.352 4.352V61.72z"/></svg>