<svg xmlns="http://www.w3.org/2000/svg" viewBox="0 0 188.4 50"><style>.st0{fill:#777}.st1{fill:#4682b4}.st2{fill:#006ba8}.st3{fill:#fff}.st4{fill:#80e4ff}</style><g id="fondo_claro"><path class="st0" d="M47 26.5c0-.9.1-1.8.4-2.4.3-.7.7-1.3 1.1-1.8s1-.8 1.6-1.1c.6-.2 1.2-.4 1.9-.4 1.5 0 2.7.5 3.5 1.4.9.9 1.3 2.3 1.3 4v1.2H50c.1.6.4 1.1.9 1.5.5.4 1.2.5 2 .5.5 0 1.1 0 1.6-.2.5-.1 1-.2 1.3-.4l.4 2.4c-.2.1-.4.2-.6.2s-.6.1-.9.2c-.3.1-.7.1-1 .1s-.8.3-1.2.3c-.9 0-1.8-.1-2.5-.4-.7-.3-1.3-.7-1.7-1.2-.5-.5-.8-1.1-1-1.7-.2-.7-.3-1.4-.3-2.2zm7-1.1c0-.3-.1-.5-.1-.7-.1-.2-.2-.5-.3-.6-.2-.2-.3-.3-.6-.5-.2-.1-.5-.2-.9-.2-.3 0-.6.1-.9.2s-.4.3-.6.4c-.2.2-.3.4-.4.7-.1.2-.2.5-.2.8h4zM62.2 29.6c.5 0 .9-.1 1.2-.2.2-.1.3-.3.3-.6 0-.2-.1-.5-.4-.6-.3-.2-.7-.4-1.3-.6-.5-.2-.9-.4-1.3-.5-.4-.2-.7-.4-1-.7-.3-.3-.5-.6-.6-.9-.1-.4-.2-.8-.2-1.3 0-1 .4-1.8 1.1-2.3s1.7-.9 3-.9c.6 0 1.3.1 1.8.2.6.1 1.1.2 1.4.4l-.5 2.3c-.3-.1-.7-.2-1.1-.3-.4-.1-.9-.1-1.4-.1-.9 0-1.4.3-1.4.8 0 .1 0 .2.1.3s.1.2.2.3c.1.1.3.2.5.3.2.1.5.2.8.3.7.2 1.2.5 1.6.7s.8.5 1 .8c.2.3.4.6.5.9.1.3.1.7.1 1.2 0 1-.4 1.8-1.2 2.4s-1.8.5-3.2.5c-.9 0-1.7-.1-2.3-.2s-1.1-.3-1.3-.4l.5-2.4c.5.2 1 .4 1.6.5s1 .1 1.5.1zM68.4 26.4c0-.8.1-1.5.4-2.2.2-.7.6-1.3 1.1-1.8s1-.9 1.7-1.2 1.4-.4 2.3-.4c.6 0 1.1 0 1.5.1.5.1.9.2 1.4.4l-.6 2.4-.9-.3c-.3-.1-.7-.1-1.1-.1-.9 0-1.5.3-2 .8s-.6 1.3-.6 2.2c0 .9.2 1.7.6 2.2.4.5 1.1.8 2.1.8.4 0 .7 0 1.2-.1s.8-.2 1.1-.3l.4 2.4c-.3.1-.8.3-1.3.4-.7.2-1.2.3-1.9.3-1 0-1.8-.1-2.5-.4-.7-.3-1.3-.7-1.7-1.2-.4-.5-.8-1.1-1-1.7s-.2-1.5-.2-2.3zM87.8 31.3c-.5.1-1.2.3-2 .4-.8.1-1.6.2-2.5.2-.9 0-1.6-.1-2.2-.4-.6-.2-1.1-.6-1.4-1s-.6-1-.7-1.6c-.1-.6-.2-1.3-.2-2V21h3v5.5c0 1 .1 1.7.4 2.1.3.4.7.6 1.4.6h.7c.3 0 .5 0 .6-.1V21h3v10.3zM90.1 26.5c0-.9.1-1.8.4-2.4.3-.7.7-1.3 1.1-1.8s1-.8 1.6-1.1c.6-.2 1.2-.4 1.9-.4 1.5 0 2.7.5 3.5 1.4.9.9 1.3 2.3 1.3 4v1.2h-6.8c.1.6.4 1.1.9 1.5.5.4 1.2.5 2 .5.5 0 1.1 0 1.6-.2.5-.1 1-.2 1.3-.4l.4 2.4c-.2.1-.4.2-.6.2s-.6.1-.9.2c-.3.1-.7.1-1 .1s-.7.3-1.1.3c-.9 0-1.8-.1-2.5-.4-.7-.3-1.3-.7-1.7-1.2-.5-.5-.8-1.1-1-1.7-.3-.7-.4-1.4-.4-2.2zm7-1.1c0-.3-.1-.5-.1-.7-.1-.2-.2-.5-.3-.6-.2-.2-.3-.3-.6-.5-.2-.1-.5-.2-.9-.2-.3 0-.6.1-.9.2s-.4.3-.6.4c-.2.2-.3.4-.4.7-.1.2-.2.5-.2.8h4zM106.5 31.9c-.9 0-1.6-.1-2.1-.3s-1-.4-1.3-.7-.5-.7-.6-1.1c-.1-.4-.2-.9-.2-1.5V16.7l3-.5v11.5c0 .3 0 .5.1.7s.1.4.2.5c.1.1.3.3.5.4.2.1.5.2.9.2l-.5 2.4zM112.7 20.9c.9 0 1.6.1 2.2.3s1.1.5 1.4.9c.4.4.6.8.8 1.4s.2 1.1.2 1.8v6.2c-.4.1-1 .2-1.8.3-.8.1-1.7.2-2.8.2-.7 0-1.3-.1-1.8-.2-.6-.1-1-.3-1.4-.6-.4-.3-.7-.6-.9-1.1-.2-.4-.3-1-.3-1.6 0-.6.1-1.1.4-1.6.2-.4.6-.8 1-1s.9-.4 1.4-.6c.5-.1 1.1-.2 1.7-.2h1c.3 0 .5.1.7.1v-.3c0-.5-.2-.9-.5-1.2-.3-.3-.8-.5-1.6-.5-.5 0-1 0-1.5.1s-.9.2-1.3.3l-.4-2.4c.2-.1.4-.1.7-.2.3-.1.5-.1.8-.2s.6-.1 1-.1c.3.2.7.2 1 .2zm.3 8.7h.8c.3 0 .5 0 .6-.1v-2.3c-.1 0-.3-.1-.5-.1h-1.5c-.2 0-.5.1-.7.2s-.3.2-.4.4c-.1.2-.2.4-.2.6 0 .5.2.8.5 1 .4.2.8.3 1.4.3zM122.9 30.1c0 .6-.2 1.1-.6 1.4s-.8.5-1.3.5-.9-.2-1.3-.5-.6-.8-.6-1.4c0-.6.2-1.1.6-1.4.4-.3.8-.5 1.3-.5s.9.2 1.3.5c.4.4.6.8.6 1.4z"/><g><path class="st1" d="M133.4 31.2c-.3.1-.6.2-.9.2-.3.1-.7.1-1.1.2-.4.1-.8.1-1.2.1h-1.1c-.9 0-1.6-.1-2.3-.4-.7-.3-1.3-.6-1.7-1.1s-.8-1-1.1-1.7c-.2-.7-.4-1.4-.4-2.3 0-.9.1-1.6.3-2.3.2-.7.5-1.3.9-1.8s.9-.8 1.5-1.1 1.2-.4 2-.4c.4 0 .8 0 1.1.1.3.1.7.2 1 .3v-4.8l3-.5v15.5zm-6.8-5c0 .9.2 1.7.6 2.2.4.6 1 .8 1.8.8h.7c.2 0 .4 0 .6-.1v-5.4c-.2-.1-.4-.2-.7-.3s-.6-.1-.9-.1c-1.4.1-2.1 1-2.1 2.9zM139.4 18c0 .5-.2 1-.5 1.3-.4.3-.8.5-1.3.5s-.9-.2-1.3-.5-.5-.7-.5-1.3c0-.5.2-1 .5-1.3.4-.3.8-.5 1.3-.5s.9.2 1.3.5.5.8.5 1.3zm-.2 13.6h-3V21.1h3v10.5zM151 30.3c0 1.7-.4 3-1.3 3.8s-2.2 1.3-4 1.3c-.6 0-1.3-.1-1.9-.2-.6-.1-1.2-.3-1.8-.5l.5-2.5c.5.2 1 .3 1.5.4.5.1 1.1.2 1.8.2.9 0 1.5-.2 1.8-.6s.5-.9.5-1.4v-.4c-.3.1-.7.3-1 .3s-.7.1-1.1.1c-1.5 0-2.6-.4-3.3-1.3-.8-.9-1.2-2.1-1.2-3.6 0-.8.1-1.5.4-2.1s.6-1.2 1-1.6 1-.8 1.7-1.1c.7-.2 1.4-.4 2.3-.4h1.1c.4 0 .8.1 1.1.1.4.1.7.1 1.1.2.3.1.6.1.9.2v9.1zm-6.5-4.3c0 1.7.7 2.5 2 2.5.3 0 .6 0 .9-.1.3-.1.5-.2.7-.3v-4.8c-.1 0-.3-.1-.5-.1h-.7c-.8 0-1.4.3-1.8.8s-.6 1.2-.6 2zM157.1 18c0 .5-.2 1-.5 1.3-.4.3-.8.5-1.3.5s-.9-.2-1.3-.5-.5-.7-.5-1.3c0-.5.2-1 .5-1.3.4-.3.8-.5 1.3-.5s.9.2 1.3.5c.3.3.5.8.5 1.3zm-.3 13.6h-3V21.1h3v10.5zM159.5 18.4l3-.5V21h3.6v2.5h-3.6v3.7c0 .6.1 1.1.3 1.5.2.4.7.6 1.3.6.3 0 .6 0 1-.1s.7-.1.9-.3l.4 2.3c-.4.1-.8.3-1.2.4-.4.1-1 .2-1.6.2-.8 0-1.5-.1-2-.3-.5-.2-1-.5-1.3-.9s-.5-.9-.7-1.4c-.1-.6-.2-1.2-.2-1.9v-8.9zM171.9 20.8c.9 0 1.6.1 2.2.3s1.1.5 1.4.9c.4.4.6.8.8 1.4s.2 1.1.2 1.8v6.2c-.4.1-1 .2-1.8.3-.8.1-1.7.2-2.8.2-.7 0-1.3-.1-1.8-.2-.6-.1-1-.3-1.4-.6-.4-.3-.7-.6-.9-1.1-.2-.4-.3-1-.3-1.6 0-.6.1-1.1.4-1.6.2-.4.6-.8 1-1s.9-.4 1.4-.6c.5-.1 1.1-.2 1.7-.2h1c.3 0 .5.1.7.1v-.3c0-.5-.2-.9-.5-1.2-.3-.3-.8-.5-1.6-.5-.5 0-1 0-1.5.1s-.9.2-1.3.3l-.4-2.4c.2-.1.4-.1.7-.2.3-.1.5-.1.8-.2s.6-.1 1-.1c.3.2.6.2 1 .2zm.2 8.7h.8c.3 0 .5 0 .6-.1v-2.3c-.1 0-.3-.1-.5-.1h-1.5c-.2 0-.5.1-.7.2s-.3.2-.4.4c-.1.2-.2.4-.2.6 0 .5.2.8.5 1 .4.2.9.3 1.4.3zM183.4 31.8c-.9 0-1.6-.1-2.1-.3s-1-.4-1.3-.7-.5-.7-.6-1.1c-.1-.4-.2-.9-.2-1.5V16.5l3-.5v11.5c0 .3 0 .5.1.7s.1.4.2.5c.1.1.3.3.5.4.2.1.5.2.9.2l-.5 2.5z"/></g><path class="st0" d="M43 25c0 22.8-15.3 24-32 24v-8c0-.6.5-1 1.2-1C26.3 39.9 34 38.3 34 25s-7.7-14.9-21.9-15c-.6 0-1.1-.5-1.1-1.2V1c16.8 0 32 1.1 32 24z"/><path class="st2" d="M27.9 25c0 2.8-2 5-4.5 5H10v19H1.1C.5 49 0 48.5 0 48V2c0-.5.5-1 1.1-1H10v19.1h13.4c2.5 0 4.5 2.2 4.5 4.9z"/></g></svg>