<?xml version="1.0" encoding="utf-8"?>
<!-- Generator: Adobe Illustrator 16.0.0, SVG Export Plug-In . SVG Version: 6.00 Build 0)  -->
<!DOCTYPE svg PUBLIC "-//W3C//DTD SVG 1.1//EN" "http://www.w3.org/Graphics/SVG/1.1/DTD/svg11.dtd">
<svg version="1.1" id="Layer_1" xmlns="http://www.w3.org/2000/svg" xmlns:xlink="http://www.w3.org/1999/xlink" x="0px" y="0px"
	 width="800px" height="600px" viewBox="0 0 800 600" enable-background="new 0 0 800 600" xml:space="preserve">
<path fill="#ADFF2F" d="M155.945,583.331c30.158-18.007,43.566-52.637,37.037-117.185c-8.48-83.915-15.615-124.615,18.24-187.114
	c33.853-62.5,102.873-177.613,121.543-244.945c4.239-15.303,11.976-14.695,11.976,3.92c0,21.227-3.353,71.503-5.593,92.729
	c6.417-8.379,13.007-21.287,16.768-30.166c2.64-6.26,10.942-16.871,10.942,8.823s-4.239,42.565-6.479,52.621
	c34.638,0,87.147,4.472,119.544,36.87s44.686,43.569,117.304,60.329c72.621,16.758,83.796,14.532,83.796,35.752
	c0,21.224-18.992,37.982-26.814,51.39c-7.824,13.406-37.981,46.915-91.61,54.739c-53.63,7.824-91.618,18.999-96.081,44.694
	c-4.465,25.693-12.289,70.642,11.175,137.542H155.945z"/>
</svg>
