<svg xmlns="http://www.w3.org/2000/svg" xmlns:xlink="http://www.w3.org/1999/xlink" viewBox="-75 -25 400 315">
    <defs>
        <style>
            .\35 446059a-a912-49d3-baf2-af1c525f3076{fill:none}.\39 e3acac4-d333-481c-98ba-c40230a508bd{fill:#fff}.bc7cceee-e1f0-456e-a86f-777cffa6fd8c{fill:#d8995b}.\38 94a3ada-c1d3-4fdf-8790-7b7beb9714d7{fill:#b87d4a}.\36 2479c95-70d9-40c7-ade9-7756e942381d{fill:#1b130e}.\33 98e78e8-415b-4da8-abb7-6d4fcef4579f{opacity:.05}.\30 45c647d-6357-4d78-a7bc-2732bdc34e11,.\33 98e78e8-415b-4da8-abb7-6d4fcef4579f{isolation:isolate}.\35 ec16ba9-98de-4581-aedd-f3595c5198cf{fill:#d4a47f}.\34 9e6ba9b-fc79-48ae-acfb-cae1d90daf6a{fill:#e2b283}.\31 69c94ca-4733-4046-94c5-5df902f18ee8{fill:#966844}.c25745c0-a307-4e09-80ba-6a0a201f837c{clip-path:url(#27b005f5-1970-43ad-ad3e-06080a9204d5)}.\38 8c5146d-20fc-4e39-a92d-10b38ac16081{fill:#875d3d}.\36 da0fd0c-0067-46e3-9d30-9568e323d4ae{opacity:.05}.\37 e9445f2-2cfd-4911-bc65-acb913e302de{clip-path:url(#9338c792-8c09-4165-b7b2-f06aea0615f7)}.d2a1eaae-385a-4d17-a098-a2c4f07281b4{fill:#a42828}.\39 937b8bc-b2b4-4de8-b525-cb55789c64e2{opacity:.1}.\31 640751c-5660-4d0b-8546-644298fe9baf{clip-path:url(#02956290-aa16-40bf-97d4-2363a67addc7)}.bee90991-9fe4-4963-bde5-cd170e51b04e{fill:#bb3231}.aee00f10-d8ca-4ea9-af2a-9a432f613ac4{clip-path:url(#c15287f9-ea63-429c-a8b7-3c8e4e173621)}.\31 6bd95e1-4745-4e16-9b240{clip-path:url(#d2b1da65-cc58-40af-b173-37a8fdc5624a)}.ee97da46-52d7-49e3-90d0-f1baa1341b5d{fill:#ca3836}.\33 167e439-abb5-4cce-a1e9-d1dfaa3354ff{fill:#d74141}.bf7bd322-5a73-41b1-9297-502d7cc9e257{fill:#885d3d}.\31 73d5cb6-b305-49ad-81ab-004b3515584e{fill:#976844}.\34 a308860-96d5-47f3-8de0-87814ca6659d{fill:#b68463}.\34 ad79c5e-d2a1-4211-a8d8-068c32076f23{fill:#dab209}.\39 160cc7d-e04c-4d9f-bcc3-5b22ceddcc89{fill:#ffd117}.e1132460-bebd-4339-a277-92a909c9c719{fill:#ecc111}.\30 45c647d-6357-4d78-a7bc-2732bdc34e11{opacity:.1}.\37 7fbde17-42a7-48f5-aa7e-3c3432f5f5d7{clip-path:url(#d280b95a-20ba-44db-8772-7b120ecc286d)}.\39 7f1970d-36b7-45f4-a873-0a6e0e6bdb2a{fill:#704c34}.\38 e41c8bc-b7bd-488a-bf15-01aa2085a88e{clip-path:url(#ce58fc87-33dd-4687-97d1-357cc05e4738)}.\31 9804255-b222-4957-b022-f33335a9badb{clip-path:url(#d02c4bf8-0bc0-484e-a176-c67bc15c366b)}.cd22aa4c-1f5b-42fc-8cd2-55c444686192{fill:#7a5436}.c9426f00-aae0-4b3c-90a6-87301e22d39b{clip-path:url(#9723aab9-f071-4fcf-b23c-d8a27947d132)}.\30 6d793d2-4e16-4932-a069-1e48849b273b{fill:#b48363}.\39 7f92bc8-1ad6-4628-9a12-5dbf733159db{fill:#ae7146}.af81be02-aae8-4926-aca9-bd80f12bf46e{clip-path:url(#0fe41606-88d1-4ebf-9e34-2d82ea91b8c7)}.\36 d400023-b8e5-4d15-8af5-a1b8d4f15bbd{clip-path:url(#1f291166-f59f-47f3-baff-f58804a1afbe)}.a70b2068-d595-4380-8c89-1d37380141cf{fill:#80583b}.e2877313-0fac-41bb-804d-b343527ad632{clip-path:url(#19e4a03f-e21f-4ef5-a22e-9ecbe0a1eacf)}.\33 43dc873-228f-411f-80be-f5b58cb617a3{clip-path:url(#8c058227-53c9-48a3-ac71-3fb83823ac4c)}.\36 8f51d2a-f343-4af2-928e-3ac831f7533b{fill:#a93030}.\31 e15e4ad-198a-47da-9a83-c6ae9fb1f9b0{fill:#7c2323}.feb20c48-5d8e-4fba-9f7a-36c00b453733{clip-path:url(#aabaa5f7-c004-4509-bbff-6fd04e9efda9)}.\36 fc768ca-8296-4a1a-ac24-76f24df00b60{clip-path:url(#46e20510-a066-497e-b843-e061ae206fd2)}.\36 cfcc960-09a7-45ca-868e-d9afd5b1d8a0{clip-path:url(#7e9faa66-1ea4-4fcc-8974-217878a07f75)}.\32 37203fb-7edc-49b7-8829-9f83a2adaf90{clip-path:url(#ee01ce45-1d0c-46e8-b6c3-ee51fac4579b)}.\36 5f9035a-1b44-400e-a289-2667dab1659c{clip-path:url(#9521b719-f308-41d5-a54d-5b8c342bff70)}.\34 a3efd3e-0010-4cf2-8916-7f14912affbf{clip-path:url(#07df199f-e28e-47a2-85ac-7aacc0f6c2c9)}.\35 513bdd1-85bd-4dc2-8e98-1bbc67d40c1a{clip-path:url(#66cbbaa0-7e19-4559-a373-f9ad9da701ec)}.a179e0dc-eeca-493c-9682-bb11b343a2d7{fill:#aeaeae}.ef4710d5-029f-4232-af64-54615660873c{fill:#333}.dc7958b2-ad52-4de0-aff1-c020a9601386{fill:#cbcbcb}.\37 d4f1a43-72ef-42c7-b255-9fd36094d953{opacity:.5}.\38 8af6227-236b-4592-9571-be099266cd0f{fill:#36c7c7}.\33 8697a3b0-4023-98a4-fe7ae9caec34{opacity:.9}.\35 50b8877-a25c-4b4e-a198-2b788f673426{fill:#36c8c8}
        </style>
        <clipPath id="27b005f5-1970-43ad-ad3e-06080a9204d5">
            <path id="7a4513cb-c2fd-4dca-b33e-e8cc936303e1" data-name="arm" class="5446059a-a912-49d3-baf2-af1c525f3076" d="M197.8 76.7S224.4 67 241 66.32c-.46 15.18-20 29.82-22.87 31.23-7.95 3.9-11.85 5.83-28.67 1-13.58-15.11 8.34-21.85 8.34-21.85z"/>
        </clipPath>
        <clipPath id="9338c792-8c09-4165-b7b2-f06aea0615f7">
            <path class="5446059a-a912-49d3-baf2-af1c525f3076" d="M203.38 74.92l3.06-.71s10.78 14.15 5.41 26.11c0 0-2.24.73-2.63.78 0 0 2.78-16.39-5.84-26.18z"/>
        </clipPath>
        <clipPath id="02956290-aa16-40bf-97d4-2363a67addc7">
            <path class="5446059a-a912-49d3-baf2-af1c525f3076" d="M204.48 74.74s9.7 13.88 5.33 26.15a1.06 1.06 0 0 1-.32.5c-.44.27-21.61 4.77-24.88-9.67s19.19-17.14 19.19-17.14.48-.12.68.16z"/>
        </clipPath>
        <clipPath id="c15287f9-ea63-429c-a8b7-3c8e4e173621">
            <path id="f3f189b5-b836-4ac2-b68d-4dc78ae86591" data-name="head" class="5446059a-a912-49d3-baf2-af1c525f3076" d="M131.41 54.84c4.51-14.5 16.54-27.32 32.7-30s31.68 5.57 40.64 17.83 10.12 19.21 10.12 19.21-5.5 25-39.52 30.64S128 76.29 128 76.29s-1.11-6.95 3.41-21.45z"/>
        </clipPath>
        <clipPath id="d2b1da65-cc58-40af-b173-37a8fdc5624a">
            <path class="5446059a-a912-49d3-baf2-af1c525f3076" d="M151.54 88.58A71.72 71.72 0 0 1 196 84.52s6.84 3.25 12.26 24.62c.06.25.37.39.19.77a17.42 17.42 0 0 1-10 .58c-5.33-1.38-31.5-14.42-54.43-3.14a2.41 2.41 0 0 1 0-1.08c.15-.47 1.45-1.65 1.59-1.95 0 0-.38-.38-.21-.55s.55-.21.72-.59a54.23 54.23 0 0 0 2.88-7.24c.42-1.94 2.2-7.2 2.54-7.36z"/>
        </clipPath>
        <clipPath id="d280b95a-20ba-44db-8772-7b120ecc286d">
            <path class="5446059a-a912-49d3-baf2-af1c525f3076" d="M145.3 115.73c-.35.17-14 6.66-8.81 21 0 0-3-3-4-3.12s3.14 7.44 4.19 7.8c.83.28 6.91-.3 12.31-1.83a25 25 0 0 0 3.52-1.28z"/>
        </clipPath>
        <clipPath id="ce58fc87-33dd-4687-97d1-357cc05e4738">
            <path class="5446059a-a912-49d3-baf2-af1c525f3076" d="M208.92 112.12c.35.17 15.65 8.63 9.47 25.5 0 0 3-3 4-3.12s-3.14 7.44-4.19 7.8c-.83.28-6.91-.3-12.31-1.83a25 25 0 0 1-3.52-1.28z"/>
        </clipPath>
        <clipPath id="d02c4bf8-0bc0-484e-a176-c67bc15c366b">
            <path class="5446059a-a912-49d3-baf2-af1c525f3076" d="M138.81 202.5c-.38.11-15 4.08-12.37 19.09 0 0-2.37-3.51-3.4-3.78s1.78 7.88 2.75 8.41c.77.43 6.85.92 12.43.37a25 25 0 0 0 3.69-.64z"/>
        </clipPath>
        <clipPath id="9723aab9-f071-4fcf-b23c-d8a27947d132">
            <path class="5446059a-a912-49d3-baf2-af1c525f3076" d="M153.92 170.69c-7.15 5.78-12.37 24-12.37 24s-14.91 15.31-3.32 31.91c0 0 50.65 3.62 67.06 0 0 0 11.41-23-5.71-55 0-.05-38.51-6.7-45.66-.91z"/>
        </clipPath>
        <clipPath id="0fe41606-88d1-4ebf-9e34-2d82ea91b8c7">
            <path id="2aa8760c-ad62-46d0-88a8-a55bdd185380" data-name="arm" class="5446059a-a912-49d3-baf2-af1c525f3076" d="M185.3 170.07s16.56-22.06 30.91-33.31c10 12.7 3.09 34.28 1.49 37.27-4.43 8.3-6.61 12.39-24.92 19.29-28.17 10.61-7.48-23.25-7.48-23.25z"/>
        </clipPath>
        <clipPath id="1f291166-f59f-47f3-baff-f58804a1afbe">
            <path id="f669c013-3d96-4060-9b58-030bd5ea565b" data-name="arm" class="5446059a-a912-49d3-baf2-af1c525f3076" d="M161.1 163.93s-24-19.07-24.5-15.72c0 0-6 13.56 4.67 30 16.37 25.24 19.83-14.28 19.83-14.28z"/>
        </clipPath>
        <clipPath id="19e4a03f-e21f-4ef5-a22e-9ecbe0a1eacf">
            <path id="39ee4cc9-dc4b-46ff-8f2d-f57874d5702e" data-name="Shirt" class="5446059a-a912-49d3-baf2-af1c525f3076" d="M148.53 176.56S142 189.82 141 194c0 0-1.06.07-1.08.68v.61a2.27 2.27 0 0 0-1.28 1.27 3.38 3.38 0 0 0 0 1.93 77.85 77.85 0 0 1 23.56-3.53c13.55 0 29.36 8 33.86 8.08a109.85 109.85 0 0 0 13-1.24s-.51-14.54-5.48-21.06c-.04-.03-16.52-11.8-55.05-4.18z"/>
        </clipPath>
        <clipPath id="8c058227-53c9-48a3-ac71-3fb83823ac4c">
            <path id="a16a3ea1-96b7-4e7f-917e-ad7c70cfe455" data-name="head" class="5446059a-a912-49d3-baf2-af1c525f3076" d="M214 148.66c-4.24-14.58-16-27.66-32.12-30.66s-31.79 5-41 17-10.49 19-10.49 19 5 25.1 38.92 31.4 47.61-15.31 47.61-15.31 1.3-6.85-2.92-21.43z"/>
        </clipPath>
        <clipPath id="aabaa5f7-c004-4509-bbff-6fd04e9efda9">
            <path id="9bd4125b-7aa2-458f-ad99-7dd6b5148506" data-name="head" class="5446059a-a912-49d3-baf2-af1c525f3076" d="M81.18 128.15c-10.26-12-28-17-42.63-12.59s-21.87 18-23.82 33.61a75.94 75.94 0 0 0 2.68 29.67c15.64 11.63 44.16 5.52 44.16 5.52S89 167.15 95.62 148.82c0 0-4.18-8.7-14.44-20.67z"/>
        </clipPath>
        <clipPath id="46e20510-a066-497e-b843-e061ae206fd2">
            <path class="5446059a-a912-49d3-baf2-af1c525f3076" d="M94.91 201.85s5.77 11.4-9.35 25.4H80.7S56 225.1 53.59 206.43c0 0 25.69-17.92 41.32-4.58z"/>
        </clipPath>
        <clipPath id="7e9faa66-1ea4-4fcc-8974-217878a07f75">
            <path class="5446059a-a912-49d3-baf2-af1c525f3076" d="M58.42 206.9c-2.27-9.61-16-12.34-16-12.34l-1.28-10.88s-11.16 2.68-13.7 6.78-7 7.46-6.24 16.18c1.65 18.74 16 21.6 16 21.6h7.07c13.13-6.99 14.81-18.72 14.15-21.34z"/>
        </clipPath>
        <clipPath id="ee01ce45-1d0c-46e8-b6c3-ee51fac4579b">
            <path id="efdae91e-de4a-44ae-ac64-144105b723bd" data-name="Shirt" class="5446059a-a912-49d3-baf2-af1c525f3076" d="M30.25 178.32s-4.2 7.34-5.14 10.56-3.49 8.05-3.42 8.73-.39.68-.39 1.14a1 1 0 0 0 .53.79s13.27-4.59 25.11-5.44 19-8 27-8.78 10.39.57 10.39.57.32-.83 0-1.19c0 0 .3-.72.13-.93a2.29 2.29 0 0 0-.64-.43s.18-6.26-9.46-17.34c0 0-27.6 1-44.11 12.32z"/>
        </clipPath>
        <clipPath id="9521b719-f308-41d5-a54d-5b8c342bff70">
            <path id="0ae86adb-0e81-46a1-b644-310055478761" data-name="arm" class="5446059a-a912-49d3-baf2-af1c525f3076" d="M48.47 179.49s.67 1.77 3.79 5.83c7.83 10.17 7.62 15.73 18.19 24.91l1.42-.44s-.28 1-1.94 1.32c-14.1 3.59-25.71 1-32.57-4.24-7-5.42-11.87-11.41-12.25-28.89 10.45-17.43 23.36 1.51 23.36 1.51z"/>
        </clipPath>
        <clipPath id="07df199f-e28e-47a2-85ac-7aacc0f6c2c9">
            <path class="5446059a-a912-49d3-baf2-af1c525f3076" d="M50.13 181.71l2.38 3.36s-9.92 15.64-22.93 14c0 0-1.36-1.93-1.53-2.28.01.04 15.27-3.97 22.08-15.08z"/>
        </clipPath>
        <clipPath id="66cbbaa0-7e19-4559-a373-f9ad9da701ec">
            <path class="5446059a-a912-49d3-baf2-af1c525f3076" d="M51.05 183s-9.66 14.89-22.67 14.34a1.52 1.52 0 0 1-.67-.19c-.39-.34-9.52-18.75 2.5-25.84 10.86-6.41 20.9 10.82 21 11s.05.43-.16.69z"/>
        </clipPath>
        <symbol id="568b3afd-d122-43c2-bd88-a4047077decb" data-name="New Symbol 12" viewBox="0 0 58.59 27.2">
            <path class="9e3acac4-d333-481c-98ba-c40230a508bd" d="M38.87 21.22h2.99v2.99h-2.99zm0-2.99h2.99v2.99h-2.99zm0-2.99h2.99v2.99h-2.99zm0-8.97h2.99v2.99h-2.99zm0-2.99h2.99v2.99h-2.99zm-2.99 20.93h2.99v2.99h-2.99z"/>
            <path class="9e3acac4-d333-481c-98ba-c40230a508bd" d="M35.88 15.24h2.99v2.99h-2.99zm0-14.95h2.99v2.99h-2.99zm-2.99 23.92h2.99v2.99h-2.99zm0-23.92h2.99v2.99h-2.99zM29.9 21.22h2.99v2.99H29.9zm0-2.99h2.99v2.99H29.9zm0-2.99h2.99v2.99H29.9zm0-2.99h2.99v2.99H29.9zm0-2.99h2.99v2.99H29.9zm0-2.99h2.99v2.99H29.9zm0-2.99h2.99v2.99H29.9zm-5.98 20.93h2.99v2.99h-2.99zm0-2.99h2.99v2.99h-2.99zm0-11.96h2.99v2.99h-2.99zm0-2.99h2.99v2.99h-2.99zm0-2.99h2.99v2.99h-2.99zm-2.99 14.95h2.99v2.99h-2.99zm0-5.98h2.99v2.99h-2.99zm0-11.96h2.99v2.99h-2.99zm-2.99 14.95h2.99v2.99h-2.99zm0-14.95h2.99v2.99h-2.99zm-2.99 23.92h2.99v2.99h-2.99zm0-2.99h2.99v2.99h-2.99zm0-2.99h2.99v2.99h-2.99zm0-2.99h2.99v2.99h-2.99zm0-2.99h2.99v2.99h-2.99zm0-2.99h2.99v2.99h-2.99zm0-2.99h2.99v2.99h-2.99zm0-2.99h2.99v2.99h-2.99zM8.97 21.22h2.99v2.99H8.97zm0-2.99h2.99v2.99H8.97zm0-2.99h2.99v2.99H8.97zm0-2.99h2.99v2.99H8.97zm0-2.99h2.99v2.99H8.97zm0-2.99h2.99v2.99H8.97zm0-2.99h2.99v2.99H8.97zM5.98 24.21h2.99v2.99H5.98zm0-23.92h2.99v2.99H5.98zM2.99 24.21h2.99v2.99H2.99zm0-23.92h2.99v2.99H2.99zM0 21.22h2.99v2.99H0zm0-2.99h2.99v2.99H0zm0-2.99h2.99v2.99H0zm0-2.99h2.99v2.99H0zm0-2.99h2.99v2.99H0zm0-2.99h2.99v2.99H0zm0-2.99h2.99v2.99H0zM48.59 0h4v3h-4zm4 0h3v3h-3zm3 3h3v3h-3zm-10 0h3v3h-3zm0 3h3v3h-3zm0 3h3v3h-3zm3 3h4v3h-4zm4 0h3v3h-3zm3 3h3v3h-3zm0 3h3v3h-3zm-10 3h3v3h-3zm10 0h3v3h-3zm-7 3h4v3h-4zm4 0h3v3h-3z"/>
        </symbol>
    </defs>
    <title>
        v
    </title>
    <g id="96f80b1f-f1b5-4132-a223-1da68fa59058" data-name="Layer 2">
        <g id="878d339f-947c-4ce1-b078-fc713b70f1d5" data-name="vial">
            <path class="bc7cceee-e1f0-456e-a86f-777cffa6fd8c" d="M112 88.25h103v78H112z"/>
            <path class="894a3ada-c1d3-4fdf-8790-7b7beb9714d7" d="M186 88.25h29v78h-29z"/>
            <g id="dffaeac2-a072-4534-92ca-e6ea233f2923" data-name="Page 1">
                <path id="efd1a964-e76f-4763-a034-b549916ee4ba" data-name="Rectangle 1" class="62479c95-70d9-40c7-ade9-7756e942381d" d="M196.88 124.25H210v15h-6v2h-3v-2h-4v-15.34zm1.12 12h1v-7h1v7h1v-10h-3zm3.4-10v13h1.6v-3h1v-10zm1.6 3h1v5h-1zm2-3v10h2v-7 7h1v-7h1v7h1v-10z"/>
            </g>
            <path class="398e78e8-415b-4da8-abb7-6d4fcef4579f" d="M215 127.47l-38.71 38.78H215v-38.78z"/>
            <path class="5ec16ba9-98de-4581-aedd-f3595c5198cf" d="M200 88.25h7v20h-7z"/>
            <path class="bc7cceee-e1f0-456e-a86f-777cffa6fd8c" d="M176.74 90.8h67.41v67.41h-67.41z"/>
            <path class="49e6ba9b-fc79-48ae-acfb-cae1d90daf6a" d="M203.82 90.8h17.69v16.85h-17.69z"/>
            <path class="169c94ca-4733-4046-94c5-5df902f18ee8" d="M196 84.52c7.15 5.78 12.45 25.39 12.45 25.39s13.91 16.25 3.45 33.28c0 0-54.66 2.13-71.07-1.5 0 0-9.15-16.92 4.7-36.71a15.8 15.8 0 0 0 1.09-1.81c6.29-12.16 18.19-20.5 31.87-21 7.63-.34 14.72.1 17.51 2.35z"/>
            <g id="34b6805d-ed81-429f-9a9f-f948f6b69d03" data-name="Top">
                <g id="93e3a958-7e57-4c86-bb45-de502ff71f93" data-name="Arm">
                    <g class="c25745c0-a307-4e09-80ba-6a0a201f837c" id="0610960c-2ed7-4dbf-b766-fce1b36612b4" data-name="Arm">
                        <path class="88c5146d-20fc-4e39-a92d-10b38ac16081" d="M241.12 62.56l-52.63 13.73-11.66 11.83 1.79 8.55 21.1 8.16 15.6-1.2 11.26-6.69s20.14-23.67 14.54-34.38z"/>
                        <path class="6da0fd0c-0067-46e3-9d30-9568e323d4ae" d="M242.21 66.52l-1.21-.2S224.47 103.94 189.69 95l-1.53 7 23.17 4.53s27.8-18.12 30.88-40.01z"/>
                    </g>
                    <g id="607fd0d3-898e-41b0-be0b-f07b02107177" data-name="Sleeve">
                        <g class="7e9445f2-2cfd-4911-bc65-acb913e302de">
                            <path class="d2a1eaae-385a-4d17-a098-a2c4f07281b4" d="M203.38 74.92l3.06-.71s10.78 14.15 5.41 26.11c0 0-2.24.73-2.63.78 0 0 2.78-16.39-5.84-26.18z"/>
                            <path class="9937b8bc-b2b4-4de8-b525-cb55789c64e2" d="M213.71 94s-3.55 1.67-4.91 1.61-.92 5.16-.92 5.16l1.09.78h3.36z"/>
                        </g>
                        <g class="1640751c-5660-4d0b-8546-644298fe9baf">
                            <path class="bee90991-9fe4-4963-bde5-cd170e51b04e" d="M204.48 74.74s9.7 13.88 5.33 26.15a1.06 1.06 0 0 1-.32.5c-.44.27-21.61 4.77-24.88-9.67s19.19-17.14 19.19-17.14.48-.12.68.16z"/>
                            <path class="9937b8bc-b2b4-4de8-b525-cb55789c64e2" d="M211.68 94.31a35 35 0 0 1-15.95 1.41c-8.13-1.42-.69 7.55-.69 7.55l10.5.53 5.33-2.3z"/>
                        </g>
                    </g>
                </g>
                <g id="f07f10ac-fdd6-4470-9813-1713170ba733" data-name="Head">
                    <path id="f76e8de2-e053-489e-9e16-0d2458f6f1f4" data-name="Shadow" class="9937b8bc-b2b4-4de8-b525-cb55789c64e2" d="M214.59 62.85s-9 31.13-31.77 31.51l-5.19-19.14z"/>
                    <g id="32657ab8-b529-4a18-971c-5c7d974505b1" data-name="npm - wombat - face">
                        <g id="a6985d3e-3c8d-4e4b-af8b-dff961bb59f0" data-name="ears">
                            <g id="130c1932-284d-45fb-9e3e-c8234ada5692" data-name="ear">
                                <path class="169c94ca-4733-4046-94c5-5df902f18ee8" d="M143.21 26.37l8.59 3.81-2.58 9.34-9.87 4.48s.01-9.55 3.86-17.63z"/>
                                <path class="88c5146d-20fc-4e39-a92d-10b38ac16081" d="M151.22 32.3l.58-2.12-8.59-3.81 3.75 9.04 4.26-3.11z"/>
                            </g>
                        </g>
                        <g class="aee00f10-d8ca-4ea9-af2a-9a432f613ac4">
                            <path id="7cdcea05-5a72-4d97-894b-4a0f8230b0f0" data-name="head" class="169c94ca-4733-4046-94c5-5df902f18ee8" d="M131.41 54.84c4.51-14.5 16.54-27.32 32.7-30s31.68 5.57 40.64 17.83 10.12 19.21 10.12 19.21-5.5 25-39.52 30.64S128 76.29 128 76.29s-1.11-6.95 3.41-21.45z"/>
                            <path class="6da0fd0c-0067-46e3-9d30-9568e323d4ae" d="M125.71 76l2.33.34s15.42 14.14 39.63 9.48 47.19-23.9 47.19-23.9l.46 4.59-13.49 20.78L167 95.71s-34.17-5.75-34.27-6S125.71 76 125.71 76z"/>
                        </g>
                        <g id="70c8e4a1-7801-4d48-99b5-d02cc38d326d" data-name="ear">
                            <path class="169c94ca-4733-4046-94c5-5df902f18ee8" d="M191.29 23.24l-6.78 6.28 5.37 7.88 10.62 1.06s-3.05-8.92-9.21-15.22z"/>
                            <path class="88c5146d-20fc-4e39-a92d-10b38ac16081" d="M185.73 31.31l-1.22-1.79 6.78-6.28-.61 9.61-4.95-1.54z"/>
                        </g>
                    </g>
                </g>
                <g id="a62e3a53-6bcf-42a0-876f-d18a1d5318d3" data-name="npm shirt">
                    <path id="86e7588f-5ebb-440d-9776-fff372eab575" data-name="Shadow" class="9937b8bc-b2b4-4de8-b525-cb55789c64e2" d="M149.37 99.2c-.19.25-5.4 8.15-5.4 8.15a56 56 0 0 1 21.15-4.07c12.19 0 30.08 6.19 31.68 6.7s.38-5.39.38-5.39z"/>
                    <g class="16bd95e1-4745-4e16-9b24-0e8658e45ce0">
                        <path class="ee97da46-52d7-49e3-90d0-f1baa1341b5d" d="M151.54 88.58A71.72 71.72 0 0 1 196 84.52s7.51 3.32 13 25.39a19.64 19.64 0 0 1-10.55.58c-5.33-1.38-31.5-14.42-54.43-3.14a2.41 2.41 0 0 1 0-1.08c.15-.47 1.45-1.65 1.59-1.95 0 0-.38-.38-.21-.55s.55-.21.72-.59a54.23 54.23 0 0 0 2.88-7.24c.42-1.94 2.2-7.2 2.54-7.36z"/>
                        <path class="9937b8bc-b2b4-4de8-b525-cb55789c64e2" d="M195.77 86.52s5.56 9.51 4.52 12-5.56 3.73-.8 5.17 7.38 4.57 5.1 4.83-11.69-3.47-15.07-3.64 9.63 4.81 11.29 5 7.76.35 10.22-1.52S201.45 86 201.45 86z"/>
                        <path class="9937b8bc-b2b4-4de8-b525-cb55789c64e2" d="M145.39 102.38c.17-.25 18.29-10.5 38.28-4 0 0-14.31-3.39-37.6 4.78s-3.66 2.07-3.66 2.07l3.15-.93s22.95-10.36 46.74-.17c0 0-24.73-8.33-49.2 1.63l-10.69 2.73s2.64-4.28 3-4.28 9.98-1.83 9.98-1.83z"/>
                        <path id="e432c7b9-a79b-437f-a1b0-62f5f8be7984" data-name="Collar" class="9937b8bc-b2b4-4de8-b525-cb55789c64e2" d="M149.71 89.34l-.85 4.32s5.69-6.69 19.36-7.71 32.47 2.46 32.47 2.46l-3.51-4.05S182.5 81.21 169 82.14s-19.29 7.2-19.29 7.2z"/>
                    </g>
                    <path id="79a4ba3c-be10-45bc-bfdb-d1606d2570de" data-name="Shadow" class="9937b8bc-b2b4-4de8-b525-cb55789c64e2" d="M150.14 88.85l-.42-.28s4.3-6.25 16.62-7.37 28.48 1.64 30.85 2.39l-31 1.3z"/>
                    <path id="3f08bd11-1b28-4ac3-a181-d91c6a6693c3" data-name="Collar" class="3167e439-abb5-4cce-a1e9-d1dfaa3354ff" d="M149.71 88.57l-.85 4.32s5.69-6.69 19.36-7.71 32.47 2.46 32.47 2.46l-3.51-4.05S182.5 80.45 169 81.38s-19.29 7.19-19.29 7.19z"/>
                </g>
            </g>
            <path class="bc7cceee-e1f0-456e-a86f-777cffa6fd8c" d="M197.53 157.69h67.41v67.41h-67.41z"/>
            <path class="894a3ada-c1d3-4fdf-8790-7b7beb9714d7" d="M197.53 157.71h24v67.41h-24z"/>
            <g id="45aa5957-c176-4d9e-8e12-0f5e1a275158" data-name="Page 1">
                <path id="eb1d5911-f216-460d-9169-e4cb24857db3" data-name="Rectangle 1" class="62479c95-70d9-40c7-ade9-7756e942381d" d="M194.15 121.42h37.07v13.07h-18.53v2.1h-8.23v-2.1h-10.3zm2.11 10.85h4.09v-6.53h2.06v6.53h2v-8.63h-8.19v8.63zm10.23-8.68v10.89h4.08v-2.17h4.13v-8.72zm4.05 2.1h2.15v4.43h-2.15zm6.25-2.1v8.63h4.1v-6.48h2.05v6.48h2v-6.46H227v6.46h2.05v-8.63z"/>
            </g>
            <path class="49e6ba9b-fc79-48ae-acfb-cae1d90daf6a" d="M235.92 157.57h17.69v16.85h-17.69z"/>
            <path class="bf7bd322-5a73-41b1-9297-502d7cc9e257" d="M32.33 83.69c25.15 18 59.27 16.73 85.14 1.24-9.83-9.52-23.76-15.23-43.87-15.23-17.72 0-31.52 6.04-41.27 13.99z"/>
            <path class="bf7bd322-5a73-41b1-9297-502d7cc9e257" d="M56.47 113.25a61.22 61.22 0 0 0-3.65-19.89c-1.31-.39-2.62-.75-3.92-1.21 1.55 7.17 3.7 14.1 5.45 21.1z"/>
            <path class="173d5cb6-b305-49ad-81ab-004b3515584e" d="M48.9 92.07a78.2 78.2 0 0 1-16.57-8.3c-.24.2-.47.51-.7.71-11.32 9.92-4 28.77 11.09 28.77h11.62c-1.74-7-3.9-14.01-5.44-21.18zm48.24 1.38a79.22 79.22 0 0 1-44.32 0 60.74 60.74 0 0 1 3.65 19.81h42.37c-3.96-6.01-5.47-13.14-1.7-19.81z"/>
            <path class="bf7bd322-5a73-41b1-9297-502d7cc9e257" d="M102.74 91.62c-1.85.68-3.72 1.37-5.6 1.91-3.77 6.67-2.26 13.72 1.69 19.72h7.87c-3.93-7-6.25-14.32-3.96-21.63z"/>
            <path class="173d5cb6-b305-49ad-81ab-004b3515584e" d="M116.52 84.92a82.92 82.92 0 0 1-13.78 6.69c-2.29 7.31 0 14.63 4 21.63H109a14.58 14.58 0 0 0 12.77-21.47 30.82 30.82 0 0 0-5.25-6.85z"/>
            <g id="bbfaf006-0882-4261-b7d4-a45b1a806557" data-name="wombat">
                <g id="4521cf2b-7630-406e-9f03-97241286d85d" data-name="npm-wombat">
                    <g id="eebe9e06-a4a8-4075-a612-d9d65d36f2bb" data-name="npm - wombat - face">
                        <g id="11ff558b-02b4-4c20-964c-1bdbf444eaf6" data-name="ears">
                            <g id="8d2013ec-e102-4123-97fc-7561f9e28d6a" data-name="ear">
                                <path class="173d5cb6-b305-49ad-81ab-004b3515584e" d="M96 4.56l-6.34 4.18L93 15.86l8.48 2.29A37.91 37.91 0 0 0 96 4.56z"/>
                                <path class="bf7bd322-5a73-41b1-9297-502d7cc9e257" d="M90.41 10.36l-.75-1.62 6.35-4.18-1.79 7.72-3.81-1.92z"/>
                            </g>
                            <g id="ec4cba52-26e9-43f0-a375-ee8de0f599a9" data-name="ear">
                                <path class="173d5cb6-b305-49ad-81ab-004b3515584e" d="M48.67 4.56L55 8.74l-3.3 7.12-8.48 2.29a37.91 37.91 0 0 1 5.45-13.59z"/>
                                <path class="bf7bd322-5a73-41b1-9297-502d7cc9e257" d="M54.27 10.36l.75-1.62-6.35-4.18 1.79 7.72 3.81-1.92z"/>
                            </g>
                        </g>
                        <path id="6d2760cf-8f2b-4146-af83-664ffd0f1379" data-name="head" class="173d5cb6-b305-49ad-81ab-004b3515584e" d="M112.56 34.25c-7.39-16.71-22.5-29.88-40.22-29.88S39.5 17.54 32.12 34.25 24.72 71 24.72 71c13.47 18.12 47.62 17.93 47.62 17.93S106.48 89.12 120 71c0 0-.05-20-7.44-36.75z"/>
                        <path class="bf7bd322-5a73-41b1-9297-502d7cc9e257" d="M112.56 34.25c-7.39-16.71-22.5-29.88-40.22-29.88S39.5 17.54 32.12 34.25c-4.55 10.31-6.3 21.87-7 29.22a28.62 28.62 0 0 0 11.64 3.65 107.88 107.88 0 0 0 12.24.63c3.55 0 7-.13 10.71-.26 4-.15 8.16-.3 12.76-.3s8.75.15 12.76.3c3.68.13 7.16.26 10.71.26a107.87 107.87 0 0 0 12.17-.63 28.82 28.82 0 0 0 11.48-3.55c-.71-7.34-2.46-18.96-7.03-29.32z"/>
                        <path id="388df418-ca20-4acc-a5b0-8e25c385b6d6" data-name="shadow" class="bf7bd322-5a73-41b1-9297-502d7cc9e257" d="M33.14 70.46A66.41 66.41 0 0 0 43.94 84c-7.37-2.65-14.54-6.74-19.22-13 0 0 0-20 7.39-36.74C36.94 23.35 45 14 55 8.74c-.42.26-22.53 14.44-21.86 61.72zm78.4 0A66.41 66.41 0 0 1 100.74 84c7.37-2.65 14.54-6.74 19.22-13 0 0 0-20-7.39-36.74C107.75 23.35 99.64 14 89.66 8.74c.44.26 22.56 14.44 21.88 61.72z"/>
                        <g id="e6157d8e-4fad-4bfd-a33b-0d40204c66d8" data-name="nose">
                            <ellipse id="c447c2b8-fce9-4038-8088-024399d5e4fb" data-name="nose" class="bf7bd322-5a73-41b1-9297-502d7cc9e257" cx="72.34" cy="81.22" rx="14.01" ry="6.77"/>
                            <ellipse id="f6a89bff-40cf-4919-8542-2b4447bc39de" data-name="nose" cx="72.34" cy="79.91" rx="14.01" ry="6.77"/>
                        </g>
                        <g id="cb81ba4a-2c63-4f6b-88cf-0424d38ba2cd" data-name="face">
                            <g id="a9694fe6-142a-4aac-84ca-9c1da36bab16" data-name="eyes">
                                <g id="12cff509-f2b1-4486-87fc-ddf28a8e5dd9" data-name="eye">
                                    <path class="4a308860-96d5-47f3-8de0-87814ca6659d" d="M58.21 71.22a3 3 0 1 1-3-3 3 3 0 0 1 3 3z"/>
                                    <circle cx="55.74" cy="71.78" r="2.28"/>
                                    <circle class="9e3acac4-d333-481c-98ba-c40230a508bd" cx="55.94" cy="71.21" r=".74"/>
                                </g>
                                <g id="609cf03e-f732-4ede-889a-dbcf3bf804d0" data-name="eye">
                                    <path class="4a308860-96d5-47f3-8de0-87814ca6659d" d="M86.61 71.22a3 3 0 1 0 3-3 3 3 0 0 0-3 3z"/>
                                    <circle cx="89.08" cy="71.78" r="2.28"/>
                                    <circle class="9e3acac4-d333-481c-98ba-c40230a508bd" cx="88.88" cy="71.21" r=".74"/>
                                </g>
                            </g>
                        </g>
                    </g>
                </g>
                <g id="23ea0369-f9a9-4b2c-9523-72ffaf5d02b1" data-name="hat">
                    <g id="c61dbb5b-b367-455c-bf7b-65200014f90c" data-name="miner hat">
                        <g id="0cb3f432-9ea2-4f56-9aba-05eeb6d25902" data-name="lid">
                            <path class="4ad79c5e-d2a1-4211-a8d8-068c32076f23" d="M124 52.12c0-2-3.47-3.6-3.47-3.6l-48.09-.12-48.28.2s-2.84 1.65-3.24 3.65H21v2h-.26c.11 2 4.13 8.55 16.19 9.89 12.23 1.36 22 0 35.49 0s23.26 1.43 35.49.07c12.09-1.36 16.09-7.96 16.2-9.96H124v-2z"/>
                            <path class="9160cc7d-e04c-4d9f-bcc3-5b22ceddcc89" d="M120.49 46.69l-48.07-.09-48.27.09s-3.42 2.58-3.42 5.3 4 8.84 16.2 10.2 22 .07 35.49.07 23.26 1.29 35.49-.07 16.2-7.48 16.2-10.2-3.62-5.3-3.62-5.3z"/>
                        </g>
                        <path id="2d617e5d-4feb-40b9-afc5-2865f34a008b" data-name="helmet" class="9160cc7d-e04c-4d9f-bcc3-5b22ceddcc89" d="M72 2.36c-26.6 0-48 17-48 37.86v9.66C24 52.7 45.4 55 72 55s48-2.28 48-5.1v-9.68c0-20.91-21.4-37.86-48-37.86z"/>
                        <path id="ef4ea64b-c72b-4136-80c9-9757d4bece85" data-name="shadow" class="e1132460-bebd-4339-a277-92a909c9c719" d="M29.89 37.25c0-12 7.83-23.83 20.05-30.69C34.6 12.89 24 25.66 24 40.22v9.66c0 .86 2 1.68 6 2.39v-15z"/>
                        <path id="b93b4f44-4ff1-4a1a-a79c-f11ba990a898" data-name="shadow" class="e1132460-bebd-4339-a277-92a909c9c719" d="M114.94 37.25c0-12-8.25-23.83-20.47-30.69C109.81 12.89 120 25.66 120 40.22v9.66c0 .86-2 1.68-5 2.39v-15z"/>
                        <g id="8b9f1fa5-9f1d-483f-9db5-21ab0ab6690c" data-name="ridges">
                            <path class="9160cc7d-e04c-4d9f-bcc3-5b22ceddcc89" d="M70.89 34.7a2.49 2.49 0 0 1-1.51 3.18 2.49 2.49 0 0 1-3.18-1.51l-11-30.91a2.49 2.49 0 0 1 1.51-3.18 2.49 2.49 0 0 1 3.18 1.51z"/>
                            <path class="e1132460-bebd-4339-a277-92a909c9c719" d="M55.76 2.91a2.49 2.49 0 0 0-.55 2.55l11 30.91a2.49 2.49 0 0 0 2 1.63zm2.11-.75a2.49 2.49 0 0 1 2 1.63l11 30.91a2.49 2.49 0 0 1-.55 2.55z" id="396424a7-959f-4b59-92b7-4046befd4758" data-name="shadow"/>
                            <path class="9160cc7d-e04c-4d9f-bcc3-5b22ceddcc89" d="M73.91 34.7a2.49 2.49 0 0 0 1.51 3.18 2.49 2.49 0 0 0 3.18-1.51l11-30.91a2.49 2.49 0 0 0-1.51-3.18 2.49 2.49 0 0 0-3.18 1.51z"/>
                            <path class="e1132460-bebd-4339-a277-92a909c9c719" d="M89 2.91a2.49 2.49 0 0 1 .55 2.55l-11 30.91a2.49 2.49 0 0 1-2 1.63zm-2.07-.75a2.49 2.49 0 0 0-2 1.63l-11 30.91a2.49 2.49 0 0 0 .55 2.55z" id="99e2046d-ed2e-483e-8c87-ce20d079dc2d" data-name="shadow"/>
                            <path class="9160cc7d-e04c-4d9f-bcc3-5b22ceddcc89" d="M77 28.76a2.49 2.49 0 0 1-2.49 2.49h-4A2.49 2.49 0 0 1 68 28.76v-26A2.49 2.49 0 0 1 70.49.25h4A2.49 2.49 0 0 1 77 2.74z"/>
                            <path class="e1132460-bebd-4339-a277-92a909c9c719" d="M70 0a2.59 2.59 0 0 0-2 2.45V28.6a2.59 2.59 0 0 0 2 2.45zm5 0a2.59 2.59 0 0 1 2 2.45V28.6a2.59 2.59 0 0 1-2 2.45z" id="8c6b4237-c07f-47f3-9567-0fef3637b8c8" data-name="shadow"/>
                        </g>
                        <path id="24936411-361b-4e1b-8421-9cc25a2a71b7" data-name="rim" class="4ad79c5e-d2a1-4211-a8d8-068c32076f23" d="M72.33 55.7c-13.1 0-25.42-.54-34.69-1.52A82.09 82.09 0 0 1 27 52.51c-3-.76-4.43-1.6-4.43-2.67a.84.84 0 0 1 1.65 0s.58 1.61 13.61 3c9.2 1 21.45 1.51 34.48 1.51s25.28-.54 34.48-1.51c13-1.38 13.61-3 13.61-3a.84.84 0 0 1 1.65 0c0 1.06-1.41 1.91-4.43 2.67A82.09 82.09 0 0 1 107 54.18c-9.25.98-21.58 1.52-34.67 1.52z"/>
                    </g>
                </g>
            </g>
            <path class="bc7cceee-e1f0-456e-a86f-777cffa6fd8c" d="M0 162.25h79v59H0z"/>
            <path class="398e78e8-415b-4da8-abb7-6d4fcef4579f" d="M79 191.68l-29.68 29.57H79v-29.57z"/>
            <path class="49e6ba9b-fc79-48ae-acfb-cae1d90daf6a" d="M30 162.25h19v15H30z"/>
            <g id="a0aa5ec8-a1a7-4611-bb4d-fa373bde808c" data-name="Page 1">
                <path id="decfab75-40e8-48e5-8faf-7eb2ae7475a9" data-name="Rectangle 1" class="62479c95-70d9-40c7-ade9-7756e942381d" d="M22 189.25h35v11H39v2h-7v-2H22zm2 9h4v-5h2v5h2v-7h-8v7zm9.75-7v9H38v-2h3v-7zm3.25 1h2v4h-2zm6-1v7h4v-5h2v5h2v-5h2v5h2v-7z"/>
            </g>
            <path class="894a3ada-c1d3-4fdf-8790-7b7beb9714d7" d="M59 162.25h79v59H59z"/>
            <path class="bc7cceee-e1f0-456e-a86f-777cffa6fd8c" d="M59 162.25h59v59H59z"/>
            <path class="398e78e8-415b-4da8-abb7-6d4fcef4579f" d="M138 191.68l-30.07 29.57H138v-29.57z"/>
            <g id="74693e1c-e45d-4115-a1f6-8f6c78f4ecbc" data-name="Page 1">
                <path id="951b658b-135b-4235-96cd-70f4478a7450" data-name="Rectangle 1" class="62479c95-70d9-40c7-ade9-7756e942381d" d="M70 189.25h33v11H86v2h-7v-2h-9V189zm1.84 9H75v-5h2v5h2v-7h-7v7.24zm9-7v9H84v-2h4v-7zm3.21 1h2v4H84zm6-1v7h3v-5h2v5h2v-5h2v5h2v-7z"/>
            </g>
            <path class="49e6ba9b-fc79-48ae-acfb-cae1d90daf6a" d="M78 162.25h16v15H78z"/>
            <path class="bc7cceee-e1f0-456e-a86f-777cffa6fd8c" d="M136 163.25h78v60h-78z"/>
            <path class="894a3ada-c1d3-4fdf-8790-7b7beb9714d7" d="M175 163.25h39v60h-39z"/>
            <g id="1b1d9daf-ac4e-4e2a-ac93-bc7098a4facf" data-name="Page 1">
                <path id="7895319b-90c9-4572-b000-9b4b9367005a" data-name="Rectangle 1" class="62479c95-70d9-40c7-ade9-7756e942381d" d="M187 190.25h22v12h-11v2h-5v-2h-6zm1 10h2v-6h2v6h1v-8h-5zm6-8v10h2v-2h3v-8zm2 2h2v4h-2zm4-2v8h3v-6h1v6h1v-6h1v6h2v-8z"/>
            </g>
            <path class="5ec16ba9-98de-4581-aedd-f3595c5198cf" d="M192 163.25h11v15h-11z"/>
            <path class="894a3ada-c1d3-4fdf-8790-7b7beb9714d7" d="M6 108.25h72v54H6z"/>
            <path class="bc7cceee-e1f0-456e-a86f-777cffa6fd8c" d="M6 108.25h54v54H6z"/>
            <path class="398e78e8-415b-4da8-abb7-6d4fcef4579f" d="M78 135.28l-27.2 26.97H78v-26.97z"/>
            <g id="d415514f-b3ac-431b-bfd3-4557963c4d97" data-name="Page 1">
                <path id="5208ac3c-c5c2-46ed-ab6e-1c824ce7d5a9" data-name="Rectangle 1" class="62479c95-70d9-40c7-ade9-7756e942381d" d="M16 133.25h30v10H31v2h-6v-2h-9v-10zm2 8h3v-5h2v5h2v-7h-7v7.21zm8.15-7v9H29v-2h4v-7zm2.81 2h2v4H29zm5-2v7h4v-5h1v5h2v-5h2v5h1v-7z"/>
            </g>
            <path class="49e6ba9b-fc79-48ae-acfb-cae1d90daf6a" d="M24 108.25h14v14H24z"/>
            <path class="894a3ada-c1d3-4fdf-8790-7b7beb9714d7" d="M61 113.25h66v50H61z"/>
            <path class="bc7cceee-e1f0-456e-a86f-777cffa6fd8c" d="M61 113.25h33v50H61z"/>
            <g id="ed16d419-f743-4af5-a01a-179466e81ea7" data-name="Page 1">
                <path id="799d0472-4d3c-426f-8278-535b974c209f" data-name="Rectangle 1" class="62479c95-70d9-40c7-ade9-7756e942381d" d="M65.41 136.25H84v9h-9v2h-4v-2h-6v-9.39zm1.06 8H69v-5h1v5h1v-7h-5v6.67zm5.52-7l-.33 8H74v-1h2v-7h-4zm2 2h1v3H74zm3-2v7h2v-5h1v5h1v-5h1v5h1v-7z"/>
            </g>
            <path class="398e78e8-415b-4da8-abb7-6d4fcef4579f" d="M127 138.16l-24.65 25.09H127v-25.09z"/>
            <path class="49e6ba9b-fc79-48ae-acfb-cae1d90daf6a" d="M70 113.25h9v12h-9z"/>
            <path class="045c647d-6357-4d78-a7bc-2732bdc34e11" d="M111.56 163.25H76v-1H0v59h74.47l43.53.07v-58.07h-6.44z"/>
            <g class="77fbde17-42a7-48f5-aa7e-3c3432f5f5d7" id="0bbe79cb-e866-4a45-bd86-77c48b23620e" data-name="Left Leg">
                <ellipse class="88c5146d-20fc-4e39-a92d-10b38ac16081" cx="144.66" cy="129.22" rx="18.45" ry="18.98" transform="rotate(-10.17 144.59 129.194)"/>
                <path class="6da0fd0c-0067-46e3-9d30-9568e323d4ae" d="M146.65 112.68l-8.18 8.66s-6 12.75 3.95 23.55l10.41-5.49z"/>
                <path class="97f1970d-36b7-45f4-a873-0a6e0e6bdb2a" d="M130.82 131.35l3 .95s4 5.6 5.11 10.7a41 41 0 0 0-4.54-.57z"/>
            </g>
            <g class="8e41c8bc-b7bd-488a-bf15-01aa2085a88e" id="b924f326-1c07-4e4b-abef-73efd6d28a60" data-name="Right Leg">
                <ellipse class="88c5146d-20fc-4e39-a92d-10b38ac16081" cx="210.24" cy="130.14" rx="18.98" ry="18.45" transform="rotate(-79.83 210.25 130.13)"/>
                <path class="6da0fd0c-0067-46e3-9d30-9568e323d4ae" d="M204.8 112.45l6.09 1s12.76 13.85 2.06 29l-14.32-3.2z"/>
                <path class="97f1970d-36b7-45f4-a873-0a6e0e6bdb2a" d="M224.07 132.27l-3 .95s-4 5.6-5.11 10.7a41 41 0 0 1 4.54-.57z"/>
            </g>
            <path class="9937b8bc-b2b4-4de8-b525-cb55789c64e2" d="M147.06 101c-.4 1-.82 2-1.22 3a71.41 71.41 0 0 1 43.69 3.4S170 96.13 147.06 101z"/>
            <g id="9f2bd8c2-125f-4d32-9a05-91f35c8b810f" data-name="Shadow">
                <path class="9937b8bc-b2b4-4de8-b525-cb55789c64e2" d="M215.8 137.7l.41-.94-8.05 3.47.85 3.58 6.79-6.11z"/>
                <path class="9937b8bc-b2b4-4de8-b525-cb55789c64e2" d="M216.21 136.76s2.91 1.78 3.68 3.81l-1.23 1.92-2.86-1.12.41-4.61"/>
            </g>
            <path id="85eb9d73-57f2-4846-85a2-caebce61756d" data-name="Shadow" class="9937b8bc-b2b4-4de8-b525-cb55789c64e2" d="M211.23 141.47c-1.31-6.07-2.3-7.65-6.67-12.69a27.92 27.92 0 0 0-1.83-5.73l-2.73 1.17a38.15 38.15 0 0 0-38.08-7.08l-2.17-2.09a27.91 27.91 0 0 0-3.76 4.69c-5.9 3.13-15 12.11-16.59 17.41-4.52 14.51 75.02 19.16 71.83 4.32z"/>
            <g id="e3840cc3-70e9-43f4-970b-d8fe5bb53339" data-name="Booster - Wombat">
                <g id="447343b8-b7a5-48eb-8633-89f2c0ad7b56" data-name="Bottom">
                    <g class="19804255-b222-4957-b022-f33335a9badb" id="88d273f0-d59d-4c8b-b187-267edefa0594" data-name="Left Leg">
                        <ellipse class="169c94ca-4733-4046-94c5-5df902f18ee8" cx="135.79" cy="215.66" rx="18.45" ry="18.98"/>
                        <path class="6da0fd0c-0067-46e3-9d30-9568e323d4ae" d="M144.27 199.21l-9.33 3.29s-7.28 13.57.62 26l10.07-1.86z"/>
                        <path class="cd22aa4c-1f5b-42fc-8cd2-55c444686192" d="M121.8 215.31l2.76 1.46s3 6.23 3.14 11.44a41 41 0 0 0-4.37-1.37z"/>
                    </g>
                    <g class="c9426f00-aae0-4b3c-90a6-87301e22d39b" id="4a6f11b2-cb7d-4456-8d65-d0cafe4b3cbf" data-name="Body">
                        <path class="169c94ca-4733-4046-94c5-5df902f18ee8" d="M127 158.25h87v77h-87z"/>
                        <path class="06d793d2-4e16-4932-a069-1e48849b273b" d="M124.22 204.61a61 61 0 0 1 17.33-10 56.85 56.85 0 0 1 44.36 1.12c33.66 15.14-8.7 44.57-8.7 44.57l-38.66-5z"/>
                        <path class="6da0fd0c-0067-46e3-9d30-9568e323d4ae" d="M201.33 179.76s3.68 24-.58 31.52l10.47-7.48s-4.68-22.2-6.43-25z"/>
                    </g>
                    <g id="77fb01d0-8724-45e6-8e31-0626d4b59dbc" data-name="Right Leg">
                        <path class="169c94ca-4733-4046-94c5-5df902f18ee8" d="M188.84 209.44c2.32-4.18 7.24-7.07 12.94-7.07 7.93 0 14.35 5.58 14.35 12.46 0 6-4.92 11.51-11.34 12.5s-19 .89-19 .89c-3.04-2.22.42-14.1 3.05-18.78z"/>
                        <g id="b75fc39c-818b-40cd-9f03-69c7551f4fa9" data-name="shadow" class="6da0fd0c-0067-46e3-9d30-9568e323d4ae">
                            <path d="M201.78 227.51c18-10.64 3-24.85 3-24.86 6.47 1.21 11.32 6.2 11.32 12.18s-4.92 11.51-11.34 12.5c-1 .15-2.14.28-3.36.39z"/>
                            <ellipse cx="204.7" cy="222.38" rx="5.03" ry="4.5" transform="rotate(-60 204.694 222.38)"/>
                        </g>
                        <ellipse class="cd22aa4c-1f5b-42fc-8cd2-55c444686192" cx="204.13" cy="223.42" rx="5.03" ry="4.5" transform="rotate(-60 204.12 223.412)"/>
                        <ellipse class="97f92bc8-1ad6-4628-9a12-5dbf733159db" cx="203.54" cy="224.44" rx="3.05" ry="2.73" transform="rotate(-60 203.53 224.434)"/>
                    </g>
                </g>
                <g id="5aa39f94-b402-436a-b78b-ea1d3eed6745" data-name="Top">
                    <g id="2186fc3e-cf90-427b-90c5-9f410d269c12" data-name="npm shirt">
                        <g id="94976b61-88f0-4c60-b623-12275f9df4f2" data-name="Right Arm">
                            <g class="af81be02-aae8-4926-aca9-bd80f12bf46e">
                                <path id="9861ae86-d7ad-4324-9a94-bbb1a669ce77" data-name="arm" class="88c5146d-20fc-4e39-a92d-10b38ac16081" d="M185.3 170.07s16.56-22.06 30.91-33.31c10 12.7 3.09 34.28 1.49 37.27-4.43 8.3-6.61 12.39-24.92 19.29-28.17 10.61-7.48-23.25-7.48-23.25z"/>
                            </g>
                            <g id="a8e1b637-00cb-4e62-8a08-5b037ec6e26f" data-name="Sleeve">
                                <path class="bee90991-9fe4-4963-bde5-cd170e51b04e" d="M211.67 174.25s3.44 2.07 4.74 2.3c0 0 .39-.26 0 .71s-4.2 8.05-11.14 10.43l-5.93-5.39 9.23-8z"/>
                                <path class="d2a1eaae-385a-4d17-a098-a2c4f07281b4" d="M212.06 172.81a31.13 31.13 0 0 0 4.93 2.55l-.58 1.06a12.11 12.11 0 0 1-4.35-1.8c-1.87-1.36 0-1.81 0-1.81z"/>
                            </g>
                            <path id="7a397c28-cbc8-44b9-8ee2-dc68d08c4fb5" data-name="head" class="6da0fd0c-0067-46e3-9d30-9568e323d4ae" d="M215.25 150.73a46 46 0 0 0-12.53-20.55c-5.34-5-66 51.06-32.13 57.36s47.61-15.31 47.61-15.31 1.29-6.92-2.95-21.5z"/>
                        </g>
                        <g id="87353da7-1eba-4b67-8692-a5d7687d9dde" data-name="Left arm">
                            <g class="6d400023-b8e5-4d15-8af5-a1b8d4f15bbd" id="2e790346-62a7-4b35-a810-aaba6535083b" data-name="arm">
                                <path id="cf5c2e74-8d01-4fd9-ad7b-51c91be96ceb" data-name="arm" class="a70b2068-d595-4380-8c89-1d37380141cf" d="M161.1 163.93s-24-19.07-24.5-15.72c0 0-6 13.56 4.67 30 16.37 25.24 19.83-14.28 19.83-14.28z"/>
                                <path class="6da0fd0c-0067-46e3-9d30-9568e323d4ae" d="M130.41 159.29s7.64 18.75 23.75 22.89l2.19-22.89L151.4 145l-22.89 3.3z"/>
                            </g>
                            <g id="20fdd5dd-5044-4c51-84c2-11b78386ac93" data-name="Sleeve">
                                <path class="bee90991-9fe4-4963-bde5-cd170e51b04e" d="M145.78 170.37a16.26 16.26 0 0 1-7.37 2.78v.59c0 .73 4.36 9.49 7.24 10.64l4.35-7.88V170z"/>
                                <path class="d2a1eaae-385a-4d17-a098-a2c4f07281b4" d="M145.15 169.41a37.74 37.74 0 0 1-7.37 2.21 6.79 6.79 0 0 0 .68 1.52 17.33 17.33 0 0 0 7.42-2.3z"/>
                            </g>
                            <path id="554fd082-744e-4339-a9bc-bf635c5a0ac8" data-name="Shadow" class="6da0fd0c-0067-46e3-9d30-9568e323d4ae" d="M136.59 165s4.42 12.84 11 16.26l2.6-8.13z"/>
                        </g>
                        <path id="5f2d5bad-8f87-435f-8d1c-be3ae614d99b" data-name="Shirt" class="9937b8bc-b2b4-4de8-b525-cb55789c64e2" d="M148.53 177.07S142 190.33 141 194.49c0 0-1.06.07-1.08.68v.61a2.69 2.69 0 0 0-.58 1.13 9.1 9.1 0 0 1-.7 1.56 89.73 89.73 0 0 1 23.56-3c13.55 0 29.36 8 33.86 8.08s12.74-1.75 12.74-1.75-.26-14-5.22-20.55c-.04-.03-16.52-11.8-55.05-4.18z"/>
                        <g class="e2877313-0fac-41bb-804d-b343527ad632" id="73bc8f30-5013-46d5-961d-ad008b945f45" data-name="Shirt">
                            <path id="0f3cd73c-1d5f-4a55-a635-e9d4674e8331" data-name="Shirt" class="ee97da46-52d7-49e3-90d0-f1baa1341b5d" d="M148.53 176.56S142 189.82 141 194c0 0-1.06.07-1.08.68v.61a2.27 2.27 0 0 0-1.28 1.27 3.38 3.38 0 0 0 0 1.93 77.85 77.85 0 0 1 23.56-3.53c13.55 0 29.36 8 33.86 8.08a109.85 109.85 0 0 0 13-1.24s-.51-14.54-5.48-21.06c-.04-.03-16.52-11.8-55.05-4.18z"/>
                            <path id="a5ba3681-1f47-4386-851a-e1925ff156fb" data-name="npm" class="9e3acac4-d333-481c-98ba-c40230a508bd" d="M183 188.91l6.64.63-.21 2.23-3.32-.32v.36l-1.47-.14v-.36l-1.85-.18zm.2 1.89l.73.07.11-1.11h.37l-.11 1.11h.37l.14-1.47-1.47-.14-.14 1.47zm2-1.31l-.17 1.86.73.07v-.37l.74.07.14-1.49-1.47-.14zm.69.43h.39l-.07.76h-.39zm1.15-.25l-.14 1.47.73.07.11-1.11h.37l-.11 1.11h.37l.11-1.1h.37l-.11 1.1h.37l.14-1.47z"/>
                            <g id="98b62988-a88c-4e31-8d3c-3a0746d3070b" data-name="Shadow">
                                <path class="9937b8bc-b2b4-4de8-b525-cb55789c64e2" d="M201.73 184.37s2.09 8.9.49 11 .19 1.9 1.32 2.89-8.26.79-10.64 0 3.71 2.51 7.83 2-5.19 2.5-10.1 1.42 9.86 4.37 15.85 2.83 4.28-2.93 4.28-2.93L208 183.3z"/>
                                <path id="dcb8e09c-379b-47f1-b0a4-e682fcb6020e" data-name="Shadow" class="9937b8bc-b2b4-4de8-b525-cb55789c64e2" d="M144.32 193.77s18.44-6.7 41.6 3c0 0-15.71-7.92-29.81-7.54 0 0 4.16.68 7.16 1.42 0 .03-10.85-.59-18.95 3.12z"/>
                            </g>
                        </g>
                        <path id="26687671-fbcd-4afb-bedb-a17c9c3cd858" data-name="Neck" class="169c94ca-4733-4046-94c5-5df902f18ee8" d="M169.32 178.47l-5.03 5.33 6.46 3.2 7.97-1.04-9.4-7.49z"/>
                    </g>
                    <g id="1a3babee-4c78-46c2-827f-42d4d9e797e6" data-name="Head">
                        <g id="9d13ec57-976d-47f1-8dfd-1243dcc7020e" data-name="ears">
                            <g id="adae8168-558d-44d3-a17e-3b65dd12dcb8" data-name="ear">
                                <path class="169c94ca-4733-4046-94c5-5df902f18ee8" d="M202.73 125.59l-6.48 2.73 1.79 7 7.32 3.52a35 35 0 0 0-2.63-13.25z"/>
                                <path class="88c5146d-20fc-4e39-a92d-10b38ac16081" d="M196.66 129.91l-.41-1.59 6.48-2.73-2.94 6.72-3.13-2.4z"/>
                            </g>
                            <g id="e642ff26-6d3a-4d00-a919-ffc5d16ab7d0" data-name="ear">
                                <path class="169c94ca-4733-4046-94c5-5df902f18ee8" d="M159.71 117.59l5.07 4.87-4.2 5.91-8.09.65a35 35 0 0 1 7.22-11.43z"/>
                                <path class="88c5146d-20fc-4e39-a92d-10b38ac16081" d="M163.82 123.81l.95-1.34-5.06-4.88.32 7.32 3.79-1.1z"/>
                            </g>
                        </g>
                        <g class="343dc873-228f-411f-80be-f5b58cb617a3">
                            <path id="a9679e3f-0b08-4485-835e-6a3ece3b413d" data-name="head" class="169c94ca-4733-4046-94c5-5df902f18ee8" d="M214 148.66c-4.24-14.58-16-27.66-32.12-30.66s-31.79 5-41 17-10.49 19-10.49 19 5 25.1 38.92 31.4 47.61-15.31 47.61-15.31 1.3-6.85-2.92-21.43z"/>
                            <path class="6da0fd0c-0067-46e3-9d30-9568e323d4ae" d="M123.34 149.4l7.07 4.67s17.42 31.37 62.12 31.37c38.07 0-68.2 7-68.2 7z"/>
                        </g>
                        <g id="12bd1cbf-44d2-48cd-aee3-13806077947c" data-name="nose">
                            <ellipse id="6f3bbf06-d64d-47ff-8911-002e3133f5a6" data-name="nose" class="88c5146d-20fc-4e39-a92d-10b38ac16081" cx="176.04" cy="149.4" rx="6.26" ry="12.94" transform="rotate(-79.46 176.05 149.398)"/>
                            <ellipse id="850cf954-88bf-4e00-91f0-b2bbde121e02" data-name="nose" cx="176.26" cy="148.21" rx="6.26" ry="12.94" transform="matrix(.18 -.98 .98 .18 -1.68 294.39)"/>
                        </g>
                        <g id="76604ae8-751b-43ab-9df3-5c84a9de8813" data-name="face">
                            <g id="593b3df8-cb8b-4eab-80b2-79f01c78ac46" data-name="eyes">
                                <g id="7ee0cf4d-5682-4036-ad7d-582b00467853" data-name="eye">
                                    <path class="06d793d2-4e16-4932-a069-1e48849b273b" d="M164.48 140.19a2.82 2.82 0 1 1-2.25-3.29 2.82 2.82 0 0 1 2.25 3.29z"/>
                                    <circle cx="162.33" cy="139.26" r="2.11" transform="rotate(-79.46 162.334 139.26)"/>
                                    <path class="9e3acac4-d333-481c-98ba-c40230a508bd" d="M163.28 138.9a.68.68 0 0 1-1.34-.25.68.68 0 0 1 1.34.25z"/>
                                </g>
                                <g id="a7688288-07d3-4847-81d6-ff40e751369d" data-name="eye">
                                    <path class="06d793d2-4e16-4932-a069-1e48849b273b" d="M190.28 145a2.82 2.82 0 1 0 3.29-2.25 2.82 2.82 0 0 0-3.29 2.25z"/>
                                    <circle cx="192.62" cy="144.89" r="2.11" transform="rotate(-79.46 192.628 144.897)"/>
                                    <path class="9e3acac4-d333-481c-98ba-c40230a508bd" d="M193.21 144.47a.68.68 0 0 1-1.34-.25.68.68 0 0 1 1.34.25z"/>
                                </g>
                            </g>
                        </g>
                    </g>
                    <g id="7e9d10b1-4c85-4bd7-b18d-83d80130544a" data-name="Collar">
                        <g id="d6a27f6f-51b6-4eae-9e92-08ea18432c66" data-name="Shadow">
                            <path class="9937b8bc-b2b4-4de8-b525-cb55789c64e2" d="M205.33 184.86s-5 5.55-26.62 5.06l-1.42-1.8-.28 1.37s-3.06-2.56-6.28-2.49l4.72-.71 23.87-.7z"/>
                            <path id="4a353aa8-6c85-41ac-b691-a2e52b679d76" data-name="Shadow" class="9937b8bc-b2b4-4de8-b525-cb55789c64e2" d="M146.92 179.61l-.21.76s9.23 6.7 15.88 6.63l1.27-1.46.72 1.09s3.5-1.46 5.92.24l-5.74-3.56z"/>
                        </g>
                        <g id="5e95cd1a-9092-415f-9d7d-79a479460b0a" data-name="Collar">
                            <g id="b04300cf-5c81-4ba5-a0b5-3d686f94f09d" data-name="Collar">
                                <path class="68f51d2a-f343-4af2-928e-3ac831f7533b" d="M173.46 186.42s-1 3.91-1 4.27l-2.46-.51.76-3.18 1.41-.71z"/>
                                <circle id="c8fe03ef-285f-4eb6-b221-32de1a87c846" data-name="Button" class="1e15e4ad-198a-47da-9a83-c6ae9fb1f9b0" cx="171.79" cy="188.68" r=".57"/>
                            </g>
                            <path class="bee90991-9fe4-4963-bde5-cd170e51b04e" d="M170.74 187a5.29 5.29 0 0 1 4.29-2.14l2 1.79-.26 1.79a6.76 6.76 0 0 0-6.03-1.44zm-5.43-4.28l.49-.19s3.79 1.23 4.94 4.47c0 0-4.65-2.52-6.17-1.34l-1.05-1.66z"/>
                            <path class="3167e439-abb5-4cce-a1e9-d1dfaa3354ff" d="M139.63 184.39c4.95 4 11.61 6 17.71 7.18a16.83 16.83 0 0 0 2.09-2.06q2.48-2.52 4.93-5.07t4.89-5.11a16.61 16.61 0 0 1 2-2.16c-6.1-1.19-12.76-3.22-17.71-7.18-.6-.48-13.53 14.68-13.89 14.39zm59.01-8.74c-8.7 4.28-19.44 4.79-28.87 3.91a18.41 18.41 0 0 1 2 2.12c1.65 1.69 3.31 3.35 5 5s3.33 3.33 5 5c.42.41 1.58 2 2.12 2 9.44.89 20.17.38 28.87-3.91-.34.17-6.41-6.55-7-7.14s-6.48-7.33-7.14-7z"/>
                        </g>
                    </g>
                </g>
            </g>
            <g id="d54faa3a-f517-4fec-9b63-f0a5ca6bfcfa" data-name="npm - wombat - face">
                <g id="25af4a6f-a653-4eca-b5e7-42524e2aeeee" data-name="ears">
                    <g id="bd41d8f0-daeb-4f37-930a-1617f290cf00" data-name="ear">
                        <path class="169c94ca-4733-4046-94c5-5df902f18ee8" d="M58.82 110.46l-4.21 5 4.5 5.06 7.58-.21a32.72 32.72 0 0 0-7.87-9.85z"/>
                        <path class="88c5146d-20fc-4e39-a92d-10b38ac16081" d="M55.63 116.65l-1.02-1.15 4.21-5.04.44 6.83-3.63-.64z"/>
                    </g>
                    <g id="8784fad0-d845-46aa-98dd-4fef6c4c5bcf" data-name="ear">
                        <path class="169c94ca-4733-4046-94c5-5df902f18ee8" d="M19.69 122.23l6.31 1.88-1 6.7-6.44 4a32.72 32.72 0 0 1 1.13-12.58z"/>
                        <path class="88c5146d-20fc-4e39-a92d-10b38ac16081" d="M25.76 125.63l.22-1.52-6.29-1.88 3.4 5.94 2.67-2.54z"/>
                    </g>
                </g>
                <g class="feb20c48-5d8e-4fba-9f7a-36c00b453733" id="eab150fa-e7eb-4a9d-8e69-1188d7dce625" data-name="head\">
                    <path id="38aba098-4ebf-4844-8551-077811363011" data-name="head" class="169c94ca-4733-4046-94c5-5df902f18ee8" d="M81.18 128.15c-10.26-12-28-17-42.63-12.59s-21.87 18-23.82 33.61a75.94 75.94 0 0 0 2.68 29.67c15.64 11.63 44.16 5.52 44.16 5.52S89 167.15 95.62 148.82c0 0-4.18-8.7-14.44-20.67z"/>
                    <path class="6da0fd0c-0067-46e3-9d30-9568e323d4ae" d="M11.81 132.71l9.25-3.26s-8.44 23.95 4 43.72c0 0 15.95 8.16 30.6 6.92l-31.27 7.45-12.07-6.24z"/>
                </g>
                <g id="f3abc697-f3d5-4a3d-9c63-1156c3df7c90" data-name="face">
                    <g id="856b4292-3c18-4b4f-8842-e80e1d65cbcc" data-name="nose">
                        <ellipse id="1220e8d8-6f0f-41f9-9996-30b5dfeabef5" data-name="nose" class="88c5146d-20fc-4e39-a92d-10b38ac16081" cx="71.91" cy="152.24" rx="12.09" ry="5.85" transform="rotate(-16.74 71.927 152.27)"/>
                        <ellipse id="4704e28d-08ef-40b9-9001-f2dacfb80460" data-name="nose" cx="71.58" cy="151.16" rx="12.09" ry="5.85" transform="rotate(-16.74 71.6 151.18)"/>
                    </g>
                    <g id="b3ad1f7b-15f5-448e-aa4b-9202e9f4e8e7" data-name="face">
                        <g id="e4bf6ef3-d5e7-4bd6-a1b7-396ed434b4b2" data-name="eyes">
                            <g id="79cbad67-6339-4d49-9fec-91a2982a7f13" data-name="eye">
                                <path class="06d793d2-4e16-4932-a069-1e48849b273b" d="M57.18 149.39a2.63 2.63 0 1 1-3.28-1.76 2.63 2.63 0 0 1 3.28 1.76z"/>
                                <circle cx="55.28" cy="150.46" r="1.97" transform="rotate(-16.74 55.282 150.48)"/>
                                <circle class="9e3acac4-d333-481c-98ba-c40230a508bd" cx="55.84" cy="150.68" r=".64" transform="rotate(-16.74 55.84 150.7)"/>
                            </g>
                            <g id="96d8de27-66b6-471c-985d-c02bd2c92235" data-name="eye">
                                <path class="06d793d2-4e16-4932-a069-1e48849b273b" d="M78.06 143a2.63 2.63 0 1 0 1.76-3.28 2.63 2.63 0 0 0-1.76 3.28z"/>
                                <circle cx="80.53" cy="142.92" r="1.97" transform="rotate(-16.74 80.52 142.945)"/>
                                <circle class="9e3acac4-d333-481c-98ba-c40230a508bd" cx="79.99" cy="143.38" r=".64" transform="rotate(-16.74 80.004 143.39)"/>
                            </g>
                        </g>
                    </g>
                </g>
            </g>
            <g id="b1c997a0-7c49-46a8-bc48-d5c014bbbbc4" data-name="Body">
                <g id="f97794f6-a435-40d7-81a1-138febb3741c" data-name="Body">
                    <g id="0538127e-c066-4354-8db2-d68753be7174" data-name="Leg">
                        <g class="6fc768ca-8296-4a1a-ac24-76f24df00b60">
                            <path class="88c5146d-20fc-4e39-a92d-10b38ac16081" d="M94.91 201.85s5.77 11.4-9.35 25.4H80.7S56 225.1 53.59 206.43c0 0 25.69-17.92 41.32-4.58z"/>
                            <path class="6da0fd0c-0067-46e3-9d30-9568e323d4ae" d="M95.07 200.75c-.06.26 3 23.15-23.2 24.63z"/>
                        </g>
                        <path class="cd22aa4c-1f5b-42fc-8cd2-55c444686192" d="M90.87 226c0 1.15-2.71 1.31-5.43 1.3s-4.92.25-4.92-.81 2.71-2.83 5.43-2.83 4.93 1.24 4.92 2.34z"/>
                    </g>
                    <path id="ef953f30-7e08-4baa-bd20-9e0c1c2a5153" data-name="Body" class="06d793d2-4e16-4932-a069-1e48849b273b" d="M30.27 183c-.81 11.14-8.44 10.75-9.12 22.45-.4 6.93 11.69 23.39 40.9 21.29s35.31-17.3 31.66-32.4-16.9-30.51-16.9-30.51-45.73 8.02-46.54 19.17z"/>
                    <g id="d49dc536-f042-447d-b460-608df168ca63" data-name="Leg">
                        <g id="a4473116-f28f-4188-a7c0-2dc54cd71b67" data-name="Leg">
                            <g class="6cfcc960-09a7-45ca-868e-d9afd5b1d8a0">
                                <path class="169c94ca-4733-4046-94c5-5df902f18ee8" d="M58.42 206.9c-2.27-9.61-16-12.34-16-12.34l-1.28-10.88s-11.16 2.68-13.7 6.78-7 7.46-6.24 16.18c1.65 18.74 16 21.6 16 21.6h7.07c13.13-6.99 14.81-18.72 14.15-21.34z"/>
                                <path class="6da0fd0c-0067-46e3-9d30-9568e323d4ae" d="M21.31 190.15l6.38 4.19s-7.37 20.7 9.53 33.47l-13.22.4-9.78-29.88z"/>
                            </g>
                            <path class="cd22aa4c-1f5b-42fc-8cd2-55c444686192" d="M48 227.32c0 1.15-2.84 1.31-5.68 1.3s-5.14.25-5.14-.81S40 225 42.89 225s5.11 1.18 5.11 2.32z"/>
                        </g>
                    </g>
                </g>
                <g id="52e4ce25-b96a-4955-b371-449406cb1d40" data-name="Shirt">
                    <path class="9937b8bc-b2b4-4de8-b525-cb55789c64e2" d="M21.84 199.54a77.57 77.57 0 0 1 8-1.39c1.27.06 1.09-.88 1.09-.88l-1.47-1.09z"/>
                    <g class="237203fb-7edc-49b7-8829-9f83a2adaf90">
                        <path id="d101bc41-bf6d-4d7b-9713-a5b007811f8d" data-name="Shirt" class="bee90991-9fe4-4963-bde5-cd170e51b04e" d="M30.25 178.32s-4.2 7.34-5.14 10.56-3.49 8.05-3.42 8.73-.39.68-.39 1.14a1 1 0 0 0 .53.79s13.27-4.59 25.11-5.44 19-8 27-8.78 10.39.57 10.39.57.32-.83 0-1.19c0 0 .3-.72.13-.93a2.29 2.29 0 0 0-.64-.43s.18-6.26-9.46-17.34c0 0-27.6 1-44.11 12.32z"/>
                        <path class="9937b8bc-b2b4-4de8-b525-cb55789c64e2" d="M35.43 172.62l11.18-2.75-4.25 12.53c-.13.38 3.18 8.07 3.18 8.07l2.6 4-27.37 5.91-2.1-5z"/>
                        <path class="9937b8bc-b2b4-4de8-b525-cb55789c64e2" d="M21.31 190.15l.47 4.32s-.13 2.35 1.71 1.59 6.61-2 6.41-1.71-8.24 3.49-8.85 4 .26-8.2.26-8.2z"/>
                    </g>
                </g>
            </g>
            <path class="9937b8bc-b2b4-4de8-b525-cb55789c64e2" d="M30 199.15S40.53 215.31 56.42 214l.17.54 8.18-1.29s5.48.67 6.44.25l24.41-9.5a13.14 13.14 0 0 0-.39-1.42c-.54-1.55-1.14-4-1.72-4.25-.87-.43-63.51.82-63.51.82zm12.67-31.93l-1.33 1.4 1.33 6.03 4.51-1.28-4.51-6.15z" id="0c3d50ba-8f31-4fdd-a830-9a75dd1d663c" data-name="Shadow"/>
            <path class="894a3ada-c1d3-4fdf-8790-7b7beb9714d7" d="M40.016 160.9l71.505-22.094 16.57 53.628-71.502 22.094z"/>
            <path class="bc7cceee-e1f0-456e-a86f-777cffa6fd8c" d="M57.886 155.373l53.63-16.57 16.57 53.628L74.456 209z"/>
            <g id="f405bb27-0f98-4bc0-b7e8-09342ca24694" data-name="Page 1">
                <path id="630685f2-841d-4e23-9dcf-675b7288000a" data-name="Rectangle 1" class="62479c95-70d9-40c7-ade9-7756e942381d" d="M79.27 175.44l29.49-9.12 3.21 10.4-14.75 4.56.52 1.67-6.55 2-.52-1.67-8.2 2.53zm4.34 8.12l3.26-1-1.61-5.19 1.64-.51 1.61 5.14 1.62-.5-2.13-6.83-6.52 2 2.12 6.87zm6-9.41l2.7 8.66 3.24-1-.55-1.74 3.29-1-2.14-6.93zm3.74.67l1.71-.53 1.09 3.53-1.71.53zm4.46-3.21l2.12 6.87 3.26-1-1.59-5.16 1.63-.5 1.59 5.16 1.63-.5-1.59-5.14 1.63-.5 1.61 5.16 1.63-.5-2.12-6.87z"/>
            </g>
            <path class="49e6ba9b-fc79-48ae-acfb-cae1d90daf6a" d="M79.444 148.703l14.073-4.348 4.142 13.404-14.077 4.346z"/>
            <path class="9937b8bc-b2b4-4de8-b525-cb55789c64e2" d="M44.11 174.27s4 1.81 7.39 7.59a.74.74 0 0 1 .19.76l1.31 2.2v.35s3 3 8.12 12.7 9.34 12.37 9.34 12.37l-23.27-11z"/>
            <g id="90e9c27d-7029-4249-841f-45016b26fbff" data-name="Arm">
                <g class="65f9035a-1b44-400e-a289-2667dab1659c" id="27991358-d348-4cf9-85a8-4bf5030bd5b4" data-name="Arm">
                    <path class="88c5146d-20fc-4e39-a92d-10b38ac16081" d="M75.7 214.52l-29.59-44-14.75-7.65-7.64 4.23-1.56 22.57 5.75 14.55 9.72 8.78s29.5 10 38.07 1.52z"/>
                    <path class="6da0fd0c-0067-46e3-9d30-9568e323d4ae" d="M71.31 218.92l.83-7.56S30.32 213 28.6 177.15l-7.11.6L24 201.23s25.49 21.21 47.31 17.69z"/>
                </g>
                <g id="891b3a70-4ad9-4693-9588-b077958091ee" data-name="Sleeve">
                    <g class="4a3efd3e-0010-4cf2-8916-7f14912affbf">
                        <path class="d2a1eaae-385a-4d17-a098-a2c4f07281b4" d="M50.22 179.81l3.5 6.19s-11.12 14.71-24.13 13.11c0 0-1.36-1.93-1.53-2.28 0 0 15.34-5.91 22.16-17.02z"/>
                        <path class="9937b8bc-b2b4-4de8-b525-cb55789c64e2" d="M36.19 199s-2.64-2.9-3-4.22-5.2.64-5.2.64l-.42 1.27 1 3.2z"/>
                    </g>
                    <g class="5513bdd1-85bd-4dc2-8e98-1bbc67d40c1a">
                        <path class="ee97da46-52d7-49e3-90d0-f1baa1341b5d" d="M52.31 185.3s-10.4 13.37-23.41 12.81c0 0-1.26.15-1.44 0-.39-.34-10.06-19.39 2.76-26.78s22 12 22 12a6 6 0 0 1 .09 1.97z"/>
                        <path class="9937b8bc-b2b4-4de8-b525-cb55789c64e2" d="M35.75 198s-10.27-9.61-11.32-17.8-5.91 3.76-5.91 3.76l6.33 11 3.77 4.42z"/>
                    </g>
                </g>
            </g>
            <g id="4f9f287b-9e99-403b-9ec0-4a8acbc3aad3" data-name="Laptop">
                <g id="7f1488d9-0a93-4c69-99ce-18d22b594714" data-name="Base">
                    <path class="a179e0dc-eeca-493c-9682-bb11b343a2d7" d="M53.71 111.25H17v.75s-.23 1.26 1 1.26h71.43A1.74 1.74 0 0 0 91 112v-.74z"/>
                    <path class="ef4710d5-029f-4232-af64-54615660873c" d="M20 110.25h67v3H20z"/>
                    <path class="045c647d-6357-4d78-a7bc-2732bdc34e11" d="M86.81 110.25H20v1h-3v.75s-.15.14.14.46c.06 0-.1-.2 0-.2h73.1c.09 0 .28.21.35.17A2.88 2.88 0 0 1 91 112v-.74h-4v-1z"/>
                </g>
                <g id="cab41773-35ae-40e5-8a78-88dfda57d3ee" data-name="Lid">
                    <path class="dc7958b2-ad52-4de0-aff1-c020a9601386" d="M94.45 79.46c0-.2-.23-.22-.55-.22H13.44c-.33 0-.58 0-.55.22v-.06l3.63 32.6c0 .2.28.28.58.28h73.14c.3 0 .56-.1.58-.3l3.63-32.59s0 .05 0 0z"/>
                    <g id="9641dbb5-627b-4459-b39f-51cc1138e938" data-name="Logo">
                        <path id="4cebc393-8a68-4534-9dbf-fac366263cfe" data-name="Logo" class="045c647d-6357-4d78-a7bc-2732bdc34e11" d="M44.2 94.25h19.68l-.12 4H54v1h-4.27v-1h-5.42zm1.2 3h2.15v-2h1.05v2h1.1v-3h-4.37zm5.36-3v4h2.14v-1h2.2v-3zm2.14 1.05H54v1.43h-1.1zm3.31-1.05v3h2.16v-2h1.08v2h1.05v-2h1.09v2h1.08l.07-3z"/>
                        <path id="10757be0-0df8-400c-aec7-889d984556c6" data-name="Logo" class="9e3acac4-d333-481c-98ba-c40230a508bd" d="M44.2 94.25h19.68l-.12 4H54v1h-4.27v-1h-5.4zm1.2 3h2.15v-2h1.05v2h1.07v-2h-4.34zm5.35-2v3h2.14v-1h2.21v-2zm2.15.19H54v1.43h-1.1zm3.31-.19v2h2.16v-2h1.08v2h1.05v-2h1.09v2h1.08l.07-2z"/>
                    </g>
                    <path class="045c647d-6357-4d78-a7bc-2732bdc34e11" d="M17.1 112.25h73.14c.3 0 .56-.1.58-.3l3.61-32.46a.57.57 0 0 0-.54-.24H13.44a.58.58 0 0 0-.54.27l3.61 32.42c.03.2.29.31.59.31z"/>
                </g>
                <path class="045c647d-6357-4d78-a7bc-2732bdc34e11" d="M53.71 113.25h34.36c-9.37-4-21.35-6.2-34.4-6.2s-25 2.2-34.4 6.2h34.44z"/>
            </g>
            <path id="778c8dc3-66b7-4de2-9f36-e080896fe3d4" data-name="Hand" class="169c94ca-4733-4046-94c5-5df902f18ee8" d="M132.37 196.4s-2.71 2.25-4.82 2.52a4.68 4.68 0 0 1-3.19-.51z"/>
            <path class="7d4f1a43-72ef-42c7-b255-9fd36094d953 88af6227-236b-4592-9571-be099266cd0f" d="M173.62 201.9a5.14 5.14 0 0 0 1.49 6.72s-.05 0 0 0c1.52-2 3-3.89 4.48-5.64-1.92-.68-3.72-1.35-5.74-2.18-.09.28 0 .66-.13.94zm-26.8 59.78a5.39 5.39 0 0 0-6.85 1.75l-.07.11c2 1.52 3.86 3 5.6 4.54.68-1.92 1.46-3.94 2.29-6a5.37 5.37 0 0 1-.82-.36zm17.6-75.62a5.3 5.3 0 0 0 4.11 5.55l.55.12c.66-2.4 1.34-4.73 2.08-6.9-2.15.1-4.4.13-6.71.12a5.31 5.31 0 0 1 0 .54zm9.4 51.79a5.34 5.34 0 0 0-3.62 6v.1c2.47-.32 4.88-.58 7.18-.76-.88-1.84-1.74-3.78-2.59-5.8a5.25 5.25 0 0 1-.82.37zM86.7 213.32a5.3 5.3 0 0 0 1-6.83l-.3-.47c-2.17 1.23-4.3 2.38-6.36 3.4 1.59 1.45 3.21 3 4.83 4.66a5.28 5.28 0 0 1 .36-.39zM85 230.63c1.22-2.37.08-5.53-2.12-7l-.29-.17c-1.52 2-3.14 3.81-4.64 5.55 1.92.68 4.27 1.63 6.29 2.46.09-.28.54-.38.68-.65zM163 253h-.57a5.3 5.3 0 0 0-5.55 4.11l-.12.55c2.4.66 4.73 1.34 6.9 2.08-.1-2.15-.13-4.4-.12-6.71a5.21 5.21 0 0 1-.54-.03zm14-32.63a5.3 5.3 0 0 0-1 6.83l.3.47c2.17-1.23 4.3-2.38 6.36-3.4-1.59-1.45-3.21-3-4.83-4.66a5.25 5.25 0 0 1-.36.39zm-50.29 44.36a5.3 5.3 0 0 0-6.83-1l-.47.3c1.23 2.17 2.38 4.3 3.4 6.36 1.45-1.59 3-3.21 4.66-4.83a5.23 5.23 0 0 1-.39-.36zm23.94-89.3a5.34 5.34 0 0 0 6 3.62h.1c-.32-2.47-.59-4.88-.76-7.18-1.84.88-3.78 1.74-5.8 2.59a5.25 5.25 0 0 1 .37.82zm-52.15 3.68a5.3 5.3 0 0 0 5.55-4.11l.12-.55c-2.4-.66-4.73-1.34-6.9-2.08.1 2.15.13 4.4.12 6.71a5.31 5.31 0 0 1 .54 0zM93.51 248a5.3 5.3 0 0 0-4.11-5.55l-.55-.12c-.66 2.4-1.34 4.73-2.08 6.9 2.15-.1 4.4-.13 6.71-.12a5.22 5.22 0 0 1 0-.54zm15.14 11.43a5.34 5.34 0 0 0-6-3.62h-.1c.32 2.47.59 4.88.76 7.18 1.84-.88 3.78-1.74 5.8-2.59a5.25 5.25 0 0 1-.37-.82zm-19.4-65.76a5.34 5.34 0 0 0 3.62-6v-.1c-2.47.32-4.88.58-7.18.76.88 1.84 1.74 3.78 2.59 5.8a5.25 5.25 0 0 1 .82-.37zM134 170.92a5.3 5.3 0 0 0 6.83 1l.47-.3c-1.23-2.17-2.38-4.3-3.4-6.36-1.45 1.59-3 3.21-4.66 4.83a5.23 5.23 0 0 1 .39.36zm-18.21-.35a5.08 5.08 0 0 0 6.68-1.42v.06c-2-1.52-3.9-3-5.64-4.46-.68 1.92-1.32 3.66-2.14 5.68.28.09.69-.07 1 .07z"/>
            <path class="38697a3b-0f69-4023-98a4-fe7ae9caec34 88af6227-236b-4592-9571-be099266cd0f" d="M153.57 188.27a4.26 4.26 0 0 0 3.9 4h.08c.26-2 .55-3.88.89-5.68-1.6.3-3.27.56-5 .8a4.18 4.18 0 0 1 .12.71zm4.49 53.31a4.26 4.26 0 0 0-4 3.9v.08c2 .26 3.88.55 5.68.89-.3-1.6-.56-3.27-.8-5a4.19 4.19 0 0 1-.71.12zM141.27 181a4.23 4.23 0 0 0 5.06 2.19l.43-.14c-.5-1.92-1-3.8-1.33-5.6-1.44.93-3 1.85-4.59 2.77a4.24 4.24 0 0 1 .23.36zm25.91 33.26a4.26 4.26 0 0 0-.09 5.61l.05.06c1.58-1.21 3.13-2.35 4.65-3.39a91.93 91.93 0 0 1-4.11-3 4.18 4.18 0 0 1-.42.58zM94.7 233.41a4.23 4.23 0 0 0-2-5.12l-.39-.2c-1 1.71-2 3.36-3 4.89 1.68.37 3.42.8 5.2 1.29a4.21 4.21 0 0 1 .09-.42zm8.79 11.4a4.26 4.26 0 0 0-3.9-4h-.08c-.26 2-.55 3.88-.89 5.68 1.6-.3 3.27-.56 5-.8a4.18 4.18 0 0 1-.12-.71zm60.99-17l-.41.2a4.23 4.23 0 0 0-2.19 5.06l.14.43c1.92-.5 3.8-1 5.6-1.33-.93-1.44-1.85-3-2.77-4.59a4.16 4.16 0 0 1-.37.23zm-2.12-28.14a4.23 4.23 0 0 0 2 5.12l.39.2c1-1.71 2-3.36 3-4.89-1.68-.37-3.42-.8-5.2-1.29a4.19 4.19 0 0 1-.09.42zm-16.96 51.97a4.23 4.23 0 0 0-5.12 2l-.2.39c1.72 1 3.36 2 4.89 3 .37-1.68.8-3.42 1.29-5.2a4.17 4.17 0 0 1-.42-.09zm-19.16-72.48a4.26 4.26 0 0 0 5.61.09l.06-.05a108.17 108.17 0 0 1-3.39-4.65c-.92 1.34-1.92 2.71-3 4.1a4.19 4.19 0 0 1 .58.42zM93 203.8a4.23 4.23 0 0 0 2.19-5.06l-.14-.43c-1.92.5-3.8 1-5.6 1.33.93 1.44 1.85 3 2.77 4.59a4.23 4.23 0 0 1 .36-.23zm22.79 48.29a4.23 4.23 0 0 0-5.06-2.19l-.43.14c.5 1.92 1 3.8 1.33 5.6 1.44-.93 3-1.85 4.59-2.77a4.16 4.16 0 0 1-.23-.36zm15.02 3.11a4.26 4.26 0 0 0-5.61-.09l-.06.05c1.21 1.58 2.35 3.13 3.39 4.65.92-1.34 1.92-2.71 3-4.1a4.19 4.19 0 0 1-.58-.42zm-40.94-36.37a4.26 4.26 0 0 0 .09-5.61l-.05-.06a108.17 108.17 0 0 1-4.65 3.39c1.34.92 2.71 1.92 4.1 3a4.18 4.18 0 0 1 .42-.58zm21.79-37.39a4.23 4.23 0 0 0 5.12-2l.2-.39c-1.71-1-3.36-2-4.89-3-.37 1.68-.8 3.42-1.29 5.2a4.17 4.17 0 0 1 .42.09zm-11.4 10.06a4.26 4.26 0 0 0 4-3.9v-.08c-2-.26-3.88-.55-5.68-.89.3 1.6.56 3.27.8 5a4.17 4.17 0 0 1 .71-.12z"/>
            <path class="88af6227-236b-4592-9571-be099266cd0f" d="M161.13 213.59l.09-.1a4.32 4.32 0 0 0-1.24-6.75l-.41-.22a4.32 4.32 0 0 1-2.07-5.23l.15-.44a4.32 4.32 0 0 0-3.71-5.77h-.14a4.35 4.35 0 0 1-4-4.12v-.14a4.32 4.32 0 0 0-5.65-3.9l-.44.14a4.32 4.32 0 0 1-5.17-2.24l-.2-.42a4.32 4.32 0 0 0-6.71-1.46l-.11.09a4.35 4.35 0 0 1-5.73-.09l-.1-.09a4.32 4.32 0 0 0-6.75 1.24l-.22.41a4.32 4.32 0 0 1-5.23 2.07l-.44-.15a4.32 4.32 0 0 0-5.77 3.71v.14a4.35 4.35 0 0 1-4.12 4H103a4.32 4.32 0 0 0-3.9 5.65l.14.44a4.32 4.32 0 0 1-2.24 5.15l-.42.2a4.32 4.32 0 0 0-1.46 6.71l.09.11a4.35 4.35 0 0 1-.09 5.73l-.09.1a4.32 4.32 0 0 0 1.24 6.75l.41.22a4.32 4.32 0 0 1 2.07 5.23l-.15.44a4.32 4.32 0 0 0 3.71 5.77h.14a4.35 4.35 0 0 1 4 4.12v.14a4.32 4.32 0 0 0 5.65 3.9l.44-.14a4.32 4.32 0 0 1 5.17 2.24l.2.42a4.32 4.32 0 0 0 6.71 1.46l.11-.09a4.35 4.35 0 0 1 5.73.09l.1.09a4.32 4.32 0 0 0 6.75-1.24l.22-.41a4.32 4.32 0 0 1 5.23-2.07l.44.15a4.32 4.32 0 0 0 5.77-3.71v-.14a4.35 4.35 0 0 1 4.12-4h.14a4.32 4.32 0 0 0 3.9-5.65l-.14-.44a4.32 4.32 0 0 1 2.24-5.17l.42-.2a4.32 4.32 0 0 0 1.46-6.71l-.09-.11a4.35 4.35 0 0 1 .11-5.71z"/>
            <path class="550b8877-a25c-4b4e-a198-2b788f673426" d="M158.07 210.08c1.64-3 3.32-5.8 5-8.34-3-.66-6.3-1.54-9.65-2.58.35-3.49.81-6.83 1.38-9.89-3 .56-6.23 1-9.63 1.36-1-3.28-1.76-6.45-2.37-9.43-2.63 1.69-5.54 3.37-8.65 5-2.23-2.72-4.26-5.4-6-8-1.72 2.51-3.69 5.12-5.85 7.77-3-1.64-5.8-3.32-8.34-5-.66 3-1.54 6.3-2.58 9.65-3.49-.35-6.83-.81-9.89-1.38.56 3 1 6.23 1.36 9.63-3.28 1-6.45 1.76-9.43 2.37 1.69 2.63 3.37 5.54 5 8.65-2.72 2.23-5.4 4.26-8 6 2.51 1.72 5.12 3.69 7.77 5.85-1.64 3-3.32 5.8-5 8.34 3 .66 6.3 1.54 9.65 2.58-.35 3.49-.81 6.83-1.38 9.89 3-.56 6.23-1 9.63-1.36 1 3.28 1.76 6.45 2.37 9.43 2.63-1.69 5.54-3.37 8.65-5 2.23 2.72 4.26 5.4 6 8 1.72-2.51 3.69-5.12 5.85-7.77 3 1.64 5.8 3.32 8.34 5 .66-3 1.54-6.3 2.58-9.65 3.49.35 6.83.81 9.89 1.38-.56-3-1-6.23-1.36-9.63 3.28-1 6.45-1.76 9.43-2.37-1.69-2.63-3.37-5.54-5-8.65 2.72-2.23 5.4-4.26 8-6-2.51-1.72-5.12-3.69-7.77-5.85z"/>
            <use width="58.59" height="27.2" transform="matrix(.9 0 0 .9 102.16 204.52)" xlink:href="#568b3afd-d122-43c2-bd88-a4047077decb"/>
        </g>
    </g>
</svg>
