<svg xmlns="http://www.w3.org/2000/svg" xmlns:xlink="http://www.w3.org/1999/xlink" viewBox="0 0 448 326"><defs><style>.\31 e4bec01-26ee-4073-a97e-49c0ab587bd6,.e2048413-70b8-46ee-a0c3-7387b1a2f79e,.ef540dc6-c2b6-485a-b480-228d3083def0{isolation:isolate;}.\37 582968c-12c4-4fae-b588-7d62d1cc62c3{fill:#976844;}.a57c29e0-bc90-4f91-8d3d-f02d8b1315ea{fill:#885d3d;}.\35 82bb7c8-116e-460f-a3d1-12d30272aec9{fill:#b68463;}.\39 cca90c6-58dc-4076-b5d8-e72a06924b22{fill:#a47859;}.\33 4742a5c-7c55-4895-b040-acc138fab942{fill:#7a5336;}.\33 e265504-9b2c-44ce-b9d7-14512caba2e3{fill:#ae7146;}.ef540dc6-c2b6-485a-b480-228d3083def0{opacity:0.7;fill:url(#abb5d141-5f84-44b7-89db-c134aa4aacbb);}.\36 a49e1b5-775c-4b3a-96f9-fcc76dcc4a5e{fill:#fff;}.\34 0e7b232-9468-4983-8a9a-2cb24f15c481{fill:#aeaeae;}.f9e7a831-b188-4901-a6bb-abd1494b70c1{fill:#333;}.\31 e4bec01-26ee-4073-a97e-49c0ab587bd6{opacity:0.1;}.\39 9e9da75-ca25-4b4b-904b-eb05b7a71713{fill:#cbcbcb;}.\33 b12fb4b-8beb-4a43-a94b-1abb9794297f{fill:#dcdcdc;}.\37 b3b89f1-aba5-4175-8c6a-952c07ee22d3{fill:#cc3632;}.f32490cc-06cc-416f-941b-a5c8effb9032{opacity:0.13;mix-blend-mode:multiply;}.c82305ac-36ca-4c94-9937-c430fe35902b{fill:#c83737;}</style><radialGradient id="abb5d141-5f84-44b7-89db-c134aa4aacbb" cx="1194.33" cy="-883.23" r="86.32" gradientTransform="translate(-413.02 613.13) scale(0.54 0.43)" gradientUnits="userSpaceOnUse"><stop offset="0" stop-color="#1b90cb"/><stop offset="1" stop-color="#fff" stop-opacity="0"/></radialGradient></defs><title>saas</title><g class="e2048413-70b8-46ee-a0c3-7387b1a2f79e"><g id="b70d6ef5-05f4-45e9-a668-674bc36d935f" data-name="vial"><g id="191e9fe4-8a55-46d0-9a97-9ee762366cc3" data-name="Layer 1"><g id="68d8c95d-d7fa-45be-8004-5eafa478cbb4" data-name="npm-wombat"><g id="f2e67d2a-16ab-4ee5-8fcd-a09835c95475" data-name="body + legs"><g id="a912959f-03fc-438d-ac21-cce8a7e9feb4" data-name="body"><g id="071e347a-3345-48e5-aeca-81bfa4f1ef2c" data-name="body"><path id="e46015b7-c577-4ecc-8051-42c66edc0485" data-name="body" class="7582968c-12c4-4fae-b588-7d62d1cc62c3" d="M297.36,184.73c-12.21-25.46-37.21-45.52-66.51-45.52s-54.29,20.06-66.5,45.52-12.23,56-12.23,56c26.61,18,78.73,19.42,78.73,19.42s52.13-1.43,78.73-19.42C309.58,240.7,309.57,210.19,297.36,184.73Z"/><g id="02f54fde-4bbf-47e8-9b1b-323210a56741" data-name="body shadow"><path class="a57c29e0-bc90-4f91-8d3d-f02d8b1315ea" d="M184,253.67c-30.32-27.4-11.44-76.18-11.44-76.18l8.8-12.22s-3,1-5.75,1.79a87.58,87.58,0,0,0-11.34,17.68C152.9,208.45,152,236.55,152,240.28v0.42c9,6,20.44,10.09,32,13h0Z"/><path class="a57c29e0-bc90-4f91-8d3d-f02d8b1315ea" d="M277.85,253.67c30.32-27.4,11.37-76.18,11.37-76.18l-8.83-12.22s2.93,1,5.73,1.79a88.22,88.22,0,0,1,11.47,17.68C309,208.45,310,236.55,310,240.28v0.42c-9,6-20.59,10.09-32.15,13h0Z"/></g></g><g id="a2cf5568-81fe-4c00-a3c4-10365fc8d537" data-name="belly"><path class="582bb7c8-116e-460f-a3d1-12d30272aec9" d="M230.85,199.91c-33.52,0-62.63,9.5-77.35,23.46a144.14,144.14,0,0,0-1.38,17.34c26.61,18,78.73,19.42,78.73,19.42S283,258.7,309.58,240.7a144.35,144.35,0,0,0-1.38-17.32C293.49,209.42,264.37,199.91,230.85,199.91Z"/><g id="738ffa88-8ec1-4771-97f0-a8fe504c052a" data-name="belly shadow"><path class="9cca90c6-58dc-4076-b5d8-e72a06924b22" d="M184,253.66s-16-12.33-17.16-39.74c0,0-9.73,5.32-13.39,9.46a144.26,144.26,0,0,0-1.38,17.32c8.79,5.94,20.37,10.08,31.93,13h0Z"/><path class="9cca90c6-58dc-4076-b5d8-e72a06924b22" d="M277.66,253.66s16-12.33,17.16-39.74c0,0,9.73,5.32,13.39,9.46a144.11,144.11,0,0,1,1.38,17.32c-8.79,5.94-20.37,10.08-31.93,13h0Z"/></g></g></g><g id="11a03f8a-f49f-433a-b15d-0a2fdcae3438" data-name="legs"><g id="6a9cca11-4ffd-4d52-9a60-c2a198433c8c" data-name="leg"><path class="7582968c-12c4-4fae-b588-7d62d1cc62c3" d="M198,220.89h0c-4.52-8.16-14.13-13.8-25.25-13.8-15.47,0-28,10.89-28,24.32,0,11.8,9.6,22.47,22.14,24.4s37,1.73,37,1.73C209.91,253.15,203.16,230,198,220.89Z"/><g id="62c334a0-21aa-4e06-ab30-2bdc41225401" data-name="shadow"><path class="a57c29e0-bc90-4f91-8d3d-f02d8b1315ea" d="M172.77,256.15c-35.1-20.76-5.92-48.5-5.91-48.51-12.63,2.36-22.09,12.1-22.09,23.77s9.6,22.47,22.14,24.4c1.95,0.3,4.18.55,6.57,0.75Z"/><ellipse class="a57c29e0-bc90-4f91-8d3d-f02d8b1315ea" cx="167.1" cy="246.14" rx="8.78" ry="9.81" transform="translate(-100.68 116.53) rotate(-30)"/></g><ellipse class="34742a5c-7c55-4895-b040-acc138fab942" cx="168.22" cy="248.16" rx="8.78" ry="9.81" transform="translate(-101.54 117.36) rotate(-30)"/><ellipse class="3e265504-9b2c-44ce-b9d7-14512caba2e3" cx="169.37" cy="250.15" rx="5.32" ry="5.95" transform="translate(-102.39 118.2) rotate(-30)"/></g><g id="8e202b7a-e094-4f42-97fa-c4a5c633fb5f" data-name="leg"><path class="7582968c-12c4-4fae-b588-7d62d1cc62c3" d="M264.18,220.89h0c4.52-8.16,14.13-13.8,25.25-13.8,15.47,0,28,10.89,28,24.32,0,11.8-9.6,22.47-22.14,24.4s-37,1.73-37,1.73C252.3,253.15,259,230,264.18,220.89Z"/><g id="80073a58-354f-43d6-8828-36c1c22dd2f0" data-name="shadow"><path class="a57c29e0-bc90-4f91-8d3d-f02d8b1315ea" d="M289.43,256.15c35.1-20.76,5.92-48.5,5.91-48.51,12.63,2.36,22.09,12.1,22.09,23.77s-9.6,22.47-22.14,24.4c-1.95.3-4.18,0.55-6.57,0.75Z"/><ellipse class="a57c29e0-bc90-4f91-8d3d-f02d8b1315ea" cx="295.11" cy="246.14" rx="9.81" ry="8.78" transform="translate(-65.61 378.64) rotate(-60)"/></g><ellipse class="34742a5c-7c55-4895-b040-acc138fab942" cx="293.99" cy="248.17" rx="9.81" ry="8.78" transform="translate(-67.92 378.68) rotate(-60)"/><ellipse class="3e265504-9b2c-44ce-b9d7-14512caba2e3" cx="292.84" cy="250.15" rx="5.95" ry="5.32" transform="translate(-70.22 378.68) rotate(-60)"/></g></g></g><g id="a62d1a05-4705-4db3-8d9a-519e6d6d14de" data-name="arms"><g id="b4fe9bc3-a6ff-4848-baca-e2207fdab596" data-name="arm"><path id="8dae3ede-00a6-461b-9ac6-4a2b7baf1aa3" data-name="shaodw" class="a57c29e0-bc90-4f91-8d3d-f02d8b1315ea" d="M163.33,186.94l-0.65,1.48,0,0.11c-6,20.85-2.49,27.77,3.77,39.95,1.59,3.1,14.49,19.19,28.86,29,5.08,0.07,8.63,0,8.64,0,8.63,1.29,16.14,1.95,21,2.28-1.32-30-13.73-69.71-13.73-69.71S198.1,160,184.24,158q-0.77.69-1.51,1.4l0,0q-1.48,1.4-2.89,2.88l-0.09.1q-1.39,1.46-2.71,3l-0.09.11q-0.66.76-1.29,1.54l-0.05.07q-0.63.77-1.24,1.54l-0.06.07q-0.61.77-1.19,1.56l-0.15.2q-1.16,1.56-2.24,3.17l-0.18.27q-0.53.79-1,1.6l-0.07.11q-0.48.76-.95,1.53l-0.17.28q-0.48.79-.94,1.6l-0.16.29q-0.42.74-.82,1.48l-0.12.22q-0.44.81-.85,1.62l-0.19.37c-0.28.55-.56,1.11-0.83,1.67s-0.58,1.22-.85,1.83Z"/><path id="7b14ae49-391d-4207-bfac-76d5a7afed93" data-name="arm" class="7582968c-12c4-4fae-b588-7d62d1cc62c3" d="M215.69,190.1s13.84,44.34,13.84,74.69c-31.28,0-56-31.15-58.64-36.31-7.36-14.33-11-21.38.38-52.44C188.77,128.25,215.69,190.1,215.69,190.1Z"/></g><g id="afa5ce0d-a523-49fc-abbd-4a067e512ad9" data-name="arm"><path id="1a0f9048-48de-4088-aa70-d13c9aa74a93" data-name="shaodw" class="a57c29e0-bc90-4f91-8d3d-f02d8b1315ea" d="M298.33,186.94l0.65,1.48,0,0.11c6,20.85,2.49,27.77-3.77,39.95-1.59,3.1-14.49,19.19-28.86,29-5.08.07-8.63,0-8.64,0-8.63,1.29-16.14,1.95-21,2.28,1.32-30,13.73-69.71,13.73-69.71s13.1-30.09,27-32.08q0.77,0.69,1.51,1.4l0.05,0q1.48,1.4,2.89,2.88l0.09,0.1q1.39,1.46,2.71,3l0.09,0.11q0.66,0.76,1.3,1.54l0.05,0.07q0.63,0.77,1.24,1.54l0.06,0.07q0.61,0.77,1.19,1.56l0.15,0.2q1.16,1.56,2.24,3.17l0.18,0.27q0.53,0.79,1,1.6l0.07,0.11q0.48,0.76.95,1.53l0.17,0.28q0.48,0.79.94,1.6l0.16,0.29q0.42,0.74.82,1.48l0.12,0.22q0.44,0.81.85,1.62l0.19,0.37c0.28,0.55.56,1.11,0.83,1.67s0.57,1.22.85,1.83Z"/><path id="5176b49c-c95f-40e2-9097-9d21de9a64ef" data-name="arm" class="7582968c-12c4-4fae-b588-7d62d1cc62c3" d="M246,190.1s-13.84,44.34-13.84,74.69c31.28,0,56-31.15,58.64-36.31,7.36-14.33,11-21.38-.38-52.44C272.89,128.25,246,190.1,246,190.1Z"/><path class="ef540dc6-c2b6-485a-b480-228d3083def0" d="M295,209.79c0,25.61-29.3,46.38-65.45,46.38s-65.45-20.76-65.45-46.38"/></g></g><path id="7e7c8ff4-2546-4e1a-8266-844fce047ada" data-name="head shadow" class="34742a5c-7c55-4895-b040-acc138fab942" d="M229.39,147.58c-25.84,0-48.48,11.72-61.07,29.28,22.57,18.55,62,18.34,62,18.34s38.08,0.21,60.81-17.41C278.67,159.72,255.69,147.58,229.39,147.58Z"/><g id="a5417926-43ee-485c-a42d-ca7ba8d023ab" data-name="npm - wombat - face"><g id="58ab5614-00ea-4418-ac8f-c87b1ad19622" data-name="ears"><g id="833d77a1-57c6-4108-baa8-f086c1a827cb" data-name="ear"><path class="7582968c-12c4-4fae-b588-7d62d1cc62c3" d="M273.55,39.22l-11.46,7.54,6,12.84,15.29,4.14S281,49.94,273.55,39.22Z"/><polygon class="a57c29e0-bc90-4f91-8d3d-f02d8b1315ea" points="263.44 49.68 262.09 46.77 273.55 39.22 270.32 53.15 263.44 49.68"/></g><g id="917be859-0c54-4b18-8df0-fc0e46d20e98" data-name="ear"><path class="7582968c-12c4-4fae-b588-7d62d1cc62c3" d="M188.16,39.22l11.46,7.54-6,12.84-15.29,4.14S180.66,49.94,188.16,39.22Z"/><polygon class="a57c29e0-bc90-4f91-8d3d-f02d8b1315ea" points="198.26 49.68 199.62 46.77 188.16 39.22 191.39 53.15 198.26 49.68"/></g></g><path id="5de94eac-5d24-4389-9fa9-3857d776a6c3" data-name="head" class="7582968c-12c4-4fae-b588-7d62d1cc62c3" d="M303.38,92.78c-13.32-30.14-40.59-53.89-72.54-53.89s-59.21,23.75-72.54,53.89S145,159,145,159c24.3,32.69,85.87,32.35,85.87,32.35s61.58,0.34,85.87-32.35C316.72,159,316.71,122.92,303.38,92.78Z"/><g id="485d2f22-aaa3-46b4-a2b8-74a1357df6c6" data-name="nose"><ellipse id="10526070-318f-465d-9f18-966f9683849e" data-name="nose" class="a57c29e0-bc90-4f91-8d3d-f02d8b1315ea" cx="230.85" cy="177.48" rx="25.26" ry="12.22"/><ellipse id="45680eab-cbec-4e91-a843-9adcc7a68e5c" data-name="nose" cx="230.85" cy="175.12" rx="25.26" ry="12.22"/></g><g id="9a2156c6-02fc-412f-bcb7-99d4031d01a8" data-name="face"><g id="5a177e33-cbb5-4d73-a33b-bbca83696523" data-name="eyes"><g id="fdad2acb-1fe6-4b11-8933-0f5abae13443" data-name="eye"><path class="582bb7c8-116e-460f-a3d1-12d30272aec9" d="M205.37,161.92a5.5,5.5,0,1,1-5.5-5.5A5.5,5.5,0,0,1,205.37,161.92Z"/><circle cx="200.92" cy="162.92" r="4.12"/><circle class="6a49e1b5-775c-4b3a-96f9-fcc76dcc4a5e" cx="201.28" cy="164.14" r="1.33"/></g><g id="b1a829de-0f61-411a-8cbb-41e5c60aef82" data-name="eye"><path class="582bb7c8-116e-460f-a3d1-12d30272aec9" d="M256.59,161.92a5.5,5.5,0,1,0,5.5-5.5A5.5,5.5,0,0,0,256.59,161.92Z"/><circle cx="261.04" cy="162.92" r="4.12"/><circle class="6a49e1b5-775c-4b3a-96f9-fcc76dcc4a5e" cx="260.69" cy="164.14" r="1.33"/></g></g></g><path id="fca270fa-8935-4047-a6af-16bf378b027f" data-name="shadow" class="a57c29e0-bc90-4f91-8d3d-f02d8b1315ea" d="M160.15,158.07s7.94,13.76,19.48,24.47c-13.29-4.78-26.22-12.15-34.66-23.5,0,0,0-36.12,13.34-66.26,8.69-19.67,23.32-36.61,41.31-46C198.82,47.26,158.94,72.8,160.15,158.07Zm141.4,0s-7.94,13.76-19.48,24.47c13.29-4.78,26.22-12.15,34.66-23.5,0,0,0-36.12-13.34-66.26-8.69-19.67-23.32-36.61-41.31-46C262.88,47.26,302.77,72.8,301.55,158.07Z"/></g></g><g id="19d31b87-a5f6-43e9-8e7f-5177a181508e" data-name="Laptop"><g id="ff3a5a39-d1a2-4cd9-a818-b18c2907a38c" data-name="Base"><path class="40e7b232-9468-4983-8a9a-2cb24f15c481" d="M231.16,263H171v1.28a2.71,2.71,0,0,0,2.55,1.72h115.2a2.16,2.16,0,0,0,2.24-1.72V263H231.16Z"/><rect class="f9e7a831-b188-4901-a6bb-abd1494b70c1" x="177" y="261" width="108" height="5"/><path class="1e4bec01-26ee-4073-a97e-49c0ab587bd6" d="M284.54,261H177v2h-6v1.28a6.94,6.94,0,0,0,.71.89,2.6,2.6,0,0,0,.42-0.16h118a1.25,1.25,0,0,0,.42.12,2.7,2.7,0,0,0,.5-0.84V263h-6v-1.58Z"/></g><g id="415b673d-97d4-44c3-a789-8193ca0fe3c0" data-name="Lid"><path class="99e9da75-ca25-4b4b-904b-eb05b7a71713" d="M296.87,211.58A0.74,0.74,0,0,0,296,211H166.23a0.74,0.74,0,0,0-.89.58v0a0.38,0.38,0,0,0,0,.09l5.85,52.67a0.92,0.92,0,0,0,.94.64h118a0.92,0.92,0,0,0,.94-0.64l5.85-52.64a0.51,0.51,0,0,0,0-.1v0Z"/><g id="e24c621e-13a6-479a-85a0-d5d90a038aed" data-name="Logo"><path id="bb1fa5a6-9880-4255-9b2b-b471b7d7a042" data-name="Logo" class="1e4bec01-26ee-4073-a97e-49c0ab587bd6" d="M215.83,235h31.73l-0.2,7H232v1h-7.26v-1H216Zm1.93,6h3.47l-0.06-4h1.76l0,4h1.73l-0.05-5h-7Zm8.64-5,0.07,6h3.45v-1h3.5l0-5h-7Zm3.47,1h1.83v3h-1.83v-3Zm5.34-1,0,5h3.48l0-4h1.75l-0.06,4h1.74l0.07-4h1.75l-0.08,4h1.74l0.12-5H235.2Z"/><path id="8243b49c-c76c-4b7e-8db6-fb41a806be04" data-name="Logo" class="6a49e1b5-775c-4b3a-96f9-fcc76dcc4a5e" d="M215.83,235h31.72l-0.2,7H231.69v1h-6.94v-1H216Zm1.93,6h3.47l-0.06-3h1.75l0,3h1.73l-0.05-4h-7Zm8.63-5,0.07,6h3.45v-1h3.5l0-5h-7Zm3.46,2h1.83v2h-1.83v-2Zm5.34-2,0,5h3.48l0-3h1.75l-0.06,3h1.74l0.07-3h1.75l-0.08,3h1.74l0.12-5H235.2Z"/></g><path class="1e4bec01-26ee-4073-a97e-49c0ab587bd6" d="M172.13,265h118a0.92,0.92,0,0,0,.94-0.64l5.83-52.16A0.89,0.89,0,0,0,296,212H166.23a0.9,0.9,0,0,0-.86.17l5.83,52.3A0.85,0.85,0,0,0,172.13,265Z"/></g></g><path class="99e9da75-ca25-4b4b-904b-eb05b7a71713" d="M164,268.52c0,1.08-.33,2.48-1.43,2.48h-35a3,3,0,0,1-2.53-2.48v-3.9c0-1.08,1.44-1.62,2.53-1.62h35c1.09,0,1.43.54,1.43,1.62v3.9h0Z"/><path class="1e4bec01-26ee-4073-a97e-49c0ab587bd6" d="M162.57,263H151v8h11.57c1.09,0,1.43-1.4,1.43-2.48v-3.9C164,263.54,163.67,263,162.57,263Z"/><g id="88a9a54b-781a-4b69-8223-2d6ff749b4cd" data-name="Handle"><path class="3b12fb4b-8beb-4a43-a94b-1abb9794297f" d="M165.32,261.49a19.47,19.47,0,0,1-3.42-.28l1-5.11c0.05,0,5.94,1.06,9.56-2,2-1.69,3.06-4.47,3.06-8.28,0-5.34-1.15-11.7-6.61-11.7-3.15,0-4.4,1.42-4.41,1.44l-4.18-3.09c0.27-.36,2.79-3.55,8.59-3.55,3.55,0,11.81,1.65,11.81,16.9,0,5.45-1.67,9.59-5,12.31S168.22,261.49,165.32,261.49Z"/><path class="1e4bec01-26ee-4073-a97e-49c0ab587bd6" d="M165.36,258.14a13,13,0,0,0,8.26-2.57c2.47-2.05,3.72-5.32,3.72-9.7a22.13,22.13,0,0,0-1.41-8.58c-1.76-4.1-4.8-5-7-5a9.27,9.27,0,0,0-4.21.91c-0.06,0-.22.06-0.28,0.09l-0.4-.22v2.29l0.38,0.2s1.31-1.44,4.46-1.44c5.46,0,6.64,6.36,6.64,11.7,0,3.81-1.12,6.6-3.15,8.28-2.57,2.14-6.33,2.23-8.33,2.1V259l0.27-.86Z"/></g><path class="3b12fb4b-8beb-4a43-a94b-1abb9794297f" d="M165,267.12c0,1.13-.45,1.88-1.5,1.88h-37.7a1.74,1.74,0,0,1-1.79-1.88V227a1.84,1.84,0,0,1,1.79-2h37.7c1.06,0,1.5.86,1.5,2v40.13h0Z"/><path id="f8da6baf-0f59-48c6-a37c-09a7a7a682bc" data-name="Rectangle 1" class="7b3b89f1-aba5-4175-8c6a-952c07ee22d3" d="M131,243h28v9H145v2h-6v-2h-8v-9Zm1,8h4v-5h1v5h2v-6h-7v6h0Zm8.08-6,0,7H143v-1h3v-6h-5.92Zm2.92,1h2v3h-2v-3Zm5-1v6h3v-5h1v5h2v-5h1v5h2v-6h-9Z"/><path class="1e4bec01-26ee-4073-a97e-49c0ab587bd6" d="M163.58,225H152v44h11.58c1.08,0,1.42-.71,1.42-1.78V226.79C165,225.71,164.66,225,163.58,225Z"/></g><polygon class="f32490cc-06cc-416f-941b-a5c8effb9032" points="274.97 266 262.09 262.66 270.81 251.9 259.36 243.21 270.93 236.26 263.31 225.06 276.04 222.82 274.73 208.92 288.53 211.35 292.84 197.72 303.04 205.57 304.16 202.68 305.52 208.58 303.37 211.28 294.15 205.75 291.3 216.43 280.35 214.9 281.85 225.55 271.43 228.16 276.96 237.73 268.13 244.38 276.73 250.85 271.21 260.07 281.88 262.86 281.53 266 274.97 266"/><path class="c82305ac-36ca-4c94-9937-c430fe35902b" d="M342.95,237.92c1.81-3.31,3.67-6.42,5.52-9.22-3.37-.73-7-1.7-10.67-2.85,0.38-3.86.89-7.55,1.53-10.94-3.31.62-6.89,1.12-10.65,1.5-1.06-3.62-1.95-7.13-2.62-10.43-2.9,1.86-6.13,3.72-9.56,5.53-2.46-3-4.71-6-6.66-8.82-1.9,2.78-4.08,5.67-6.47,8.59-3.31-1.81-6.42-3.67-9.22-5.52-0.73,3.37-1.7,7-2.85,10.67-3.86-.38-7.55-0.89-10.94-1.53,0.62,3.31,1.12,6.89,1.5,10.65-3.62,1.06-7.13,1.95-10.43,2.62,1.86,2.9,3.72,6.13,5.53,9.56-3,2.46-6,4.71-8.83,6.66,2.78,1.9,5.67,4.08,8.59,6.47-1.81,3.31-3.67,6.42-5.52,9.22,3.37,0.73,7,1.7,10.67,2.85-0.38,3.86-.89,7.55-1.53,10.94,3.31-.62,6.89-1.12,10.65-1.5,1.06,3.62,1.95,7.13,2.62,10.43,2.9-1.86,6.13-3.72,9.56-5.53,2.46,3,4.71,6,6.66,8.82,1.9-2.78,4.08-5.67,6.47-8.59,3.31,1.81,6.42,3.67,9.22,5.52,0.73-3.37,1.7-7,2.85-10.67,3.86,0.38,7.55.89,10.94,1.53-0.62-3.31-1.12-6.89-1.5-10.65,3.62-1.06,7.13-1.95,10.43-2.62-1.86-2.9-3.72-6.13-5.53-9.56,3-2.46,6-4.71,8.83-6.66C348.76,242.48,345.88,240.31,342.95,237.92Z"/><rect class="6a49e1b5-775c-4b3a-96f9-fcc76dcc4a5e" x="328.91" y="253.49" width="3.12" height="3.12"/><rect class="6a49e1b5-775c-4b3a-96f9-fcc76dcc4a5e" x="328.91" y="250.37" width="3.12" height="3.12"/><rect class="6a49e1b5-775c-4b3a-96f9-fcc76dcc4a5e" x="328.91" y="247.24" width="3.12" height="3.12"/><rect class="6a49e1b5-775c-4b3a-96f9-fcc76dcc4a5e" x="328.91" y="234.75" width="3.12" height="3.12"/><rect class="6a49e1b5-775c-4b3a-96f9-fcc76dcc4a5e" x="325.79" y="256.61" width="3.12" height="3.12"/><rect class="6a49e1b5-775c-4b3a-96f9-fcc76dcc4a5e" x="325.79" y="244.12" width="3.12" height="3.12"/><rect class="6a49e1b5-775c-4b3a-96f9-fcc76dcc4a5e" x="325.79" y="231.62" width="3.12" height="3.12"/><rect class="6a49e1b5-775c-4b3a-96f9-fcc76dcc4a5e" x="322.66" y="256.61" width="3.12" height="3.12"/><rect class="6a49e1b5-775c-4b3a-96f9-fcc76dcc4a5e" x="322.66" y="244.12" width="3.12" height="3.12"/><rect class="6a49e1b5-775c-4b3a-96f9-fcc76dcc4a5e" x="322.66" y="231.62" width="3.12" height="3.12"/><rect class="6a49e1b5-775c-4b3a-96f9-fcc76dcc4a5e" x="319.54" y="253.49" width="3.12" height="3.12"/><rect class="6a49e1b5-775c-4b3a-96f9-fcc76dcc4a5e" x="319.54" y="240.99" width="3.12" height="3.12"/><rect class="6a49e1b5-775c-4b3a-96f9-fcc76dcc4a5e" x="319.54" y="237.87" width="3.12" height="3.12"/><rect class="6a49e1b5-775c-4b3a-96f9-fcc76dcc4a5e" x="319.54" y="234.75" width="3.12" height="3.12"/><rect class="6a49e1b5-775c-4b3a-96f9-fcc76dcc4a5e" x="312.88" y="253.49" width="3.12" height="3.12"/><rect class="6a49e1b5-775c-4b3a-96f9-fcc76dcc4a5e" x="312.88" y="250.37" width="3.12" height="3.12"/><rect class="6a49e1b5-775c-4b3a-96f9-fcc76dcc4a5e" x="312.88" y="247.24" width="3.12" height="3.12"/><rect class="6a49e1b5-775c-4b3a-96f9-fcc76dcc4a5e" x="312.88" y="234.75" width="3.12" height="3.12"/><rect class="6a49e1b5-775c-4b3a-96f9-fcc76dcc4a5e" x="309.76" y="256.61" width="3.12" height="3.12"/><rect class="6a49e1b5-775c-4b3a-96f9-fcc76dcc4a5e" x="309.76" y="244.12" width="3.12" height="3.12"/><rect class="6a49e1b5-775c-4b3a-96f9-fcc76dcc4a5e" x="309.76" y="231.62" width="3.12" height="3.12"/><rect class="6a49e1b5-775c-4b3a-96f9-fcc76dcc4a5e" x="306.63" y="256.61" width="3.12" height="3.12"/><rect class="6a49e1b5-775c-4b3a-96f9-fcc76dcc4a5e" x="306.63" y="244.12" width="3.12" height="3.12"/><rect class="6a49e1b5-775c-4b3a-96f9-fcc76dcc4a5e" x="306.63" y="231.62" width="3.12" height="3.12"/><rect class="6a49e1b5-775c-4b3a-96f9-fcc76dcc4a5e" x="303.51" y="253.49" width="3.12" height="3.12"/><rect class="6a49e1b5-775c-4b3a-96f9-fcc76dcc4a5e" x="303.51" y="240.99" width="3.12" height="3.12"/><rect class="6a49e1b5-775c-4b3a-96f9-fcc76dcc4a5e" x="303.51" y="237.87" width="3.12" height="3.12"/><rect class="6a49e1b5-775c-4b3a-96f9-fcc76dcc4a5e" x="303.51" y="234.75" width="3.12" height="3.12"/><rect class="6a49e1b5-775c-4b3a-96f9-fcc76dcc4a5e" x="296.34" y="253.49" width="3.12" height="3.12"/><rect class="6a49e1b5-775c-4b3a-96f9-fcc76dcc4a5e" x="296.34" y="250.37" width="3.12" height="3.12"/><rect class="6a49e1b5-775c-4b3a-96f9-fcc76dcc4a5e" x="296.34" y="247.24" width="3.12" height="3.12"/><rect class="6a49e1b5-775c-4b3a-96f9-fcc76dcc4a5e" x="296.34" y="244.12" width="3.12" height="3.12"/><rect class="6a49e1b5-775c-4b3a-96f9-fcc76dcc4a5e" x="296.34" y="240.99" width="3.12" height="3.12"/><rect class="6a49e1b5-775c-4b3a-96f9-fcc76dcc4a5e" x="296.34" y="237.87" width="3.12" height="3.12"/><rect class="6a49e1b5-775c-4b3a-96f9-fcc76dcc4a5e" x="296.34" y="234.75" width="3.12" height="3.12"/><rect class="6a49e1b5-775c-4b3a-96f9-fcc76dcc4a5e" x="293.21" y="256.61" width="3.12" height="3.12"/><rect class="6a49e1b5-775c-4b3a-96f9-fcc76dcc4a5e" x="293.21" y="231.62" width="3.12" height="3.12"/><rect class="6a49e1b5-775c-4b3a-96f9-fcc76dcc4a5e" x="290.09" y="256.61" width="3.12" height="3.12"/><rect class="6a49e1b5-775c-4b3a-96f9-fcc76dcc4a5e" x="290.09" y="231.62" width="3.12" height="3.12"/><rect class="6a49e1b5-775c-4b3a-96f9-fcc76dcc4a5e" x="286.96" y="253.49" width="3.12" height="3.12"/><rect class="6a49e1b5-775c-4b3a-96f9-fcc76dcc4a5e" x="286.96" y="250.37" width="3.12" height="3.12"/><rect class="6a49e1b5-775c-4b3a-96f9-fcc76dcc4a5e" x="286.96" y="247.24" width="3.12" height="3.12"/><rect class="6a49e1b5-775c-4b3a-96f9-fcc76dcc4a5e" x="286.96" y="244.12" width="3.12" height="3.12"/><rect class="6a49e1b5-775c-4b3a-96f9-fcc76dcc4a5e" x="286.96" y="240.99" width="3.12" height="3.12"/><rect class="6a49e1b5-775c-4b3a-96f9-fcc76dcc4a5e" x="286.96" y="237.87" width="3.12" height="3.12"/><rect class="6a49e1b5-775c-4b3a-96f9-fcc76dcc4a5e" x="286.96" y="234.75" width="3.12" height="3.12"/></g></g></svg>